<?xml version="1.0" encoding="UTF-8"?>
<svg id="Calque_1" data-name="Calque 1" xmlns="http://www.w3.org/2000/svg" viewBox="0 0 815.52 148.52">
  <defs>
    <style>
      .cls-1 {
        fill: #260085;
      }

      .cls-2 {
        fill: #ff540a;
      }
    </style>
  </defs>
  <path class="cls-1" d="M144.5,97.85c-7.21-5.22-15.35-7.83-24.41-7.83-11.54,0-22.11,4.81-31.72,14.42l-41.82,41.82c-10.71-7.14-19.23-16.48-25.54-28.01-6.32-11.54-9.48-23.96-9.48-37.29,0-9.06,1.65-18.19,4.94-27.4h59.94v-8.65H14.42c-3.85-5.36-6.94-11.12-9.27-17.3h71.27v-8.65H2.47C1.1,13.6.27,7.97,0,2.06l90.22.21c14.28,0,27.43,3.54,39.45,10.61,12.01,7.07,21.56,16.62,28.63,28.63,7.07,12.02,10.61,25.17,10.61,39.45,0,13.32-3.09,25.75-9.27,37.29-2.88-8.38-7.93-15.17-15.14-20.39ZM136.06,61.28c1.71-1.72,2.57-3.81,2.57-6.28s-.86-4.56-2.57-6.28c-1.72-1.72-3.81-2.58-6.28-2.58s-4.57.86-6.28,2.58c-1.72,1.72-2.58,3.81-2.58,6.28s.86,4.57,2.58,6.28c1.71,1.72,3.81,2.58,6.28,2.58s4.56-.86,6.28-2.58Z"/>
  <g>
    <path class="cls-2" d="M297.76,87.34c6.66-4.12,11.88-9.61,15.66-16.48,3.78-6.87,5.67-14.42,5.67-22.66s-1.99-16.27-5.97-23.28c-3.98-7-9.55-12.57-16.69-16.69-7.14-4.12-15.24-6.18-24.31-6.18h-67.57v144.19h26.78v-52.12h14.63l52.12,52.12h37.9l-53.26-53.26c5.45-.95,10.48-2.82,15.05-5.65ZM231.33,69.42V28.22h40.38c3.71,0,7.14.82,10.3,2.47,3.16,1.65,5.67,4.05,7.52,7.21,1.85,3.16,2.78,6.8,2.78,10.92s-.93,7.76-2.78,10.92c-1.85,3.16-4.36,5.56-7.52,7.21-3.16,1.65-6.59,2.47-10.3,2.47h-40.38Z"/>
    <path class="cls-2" d="M449.99,9.79c-11.33-6.52-23.86-9.79-37.59-9.79s-26.26,3.26-37.59,9.79c-11.33,6.52-20.26,15.45-26.78,26.78-6.52,11.33-9.79,23.86-9.79,37.59s3.26,26.26,9.79,37.59c6.52,11.33,15.45,20.26,26.78,26.78,11.33,6.52,23.86,9.78,37.59,9.78s26.26-3.26,37.59-9.78c11.33-6.52,20.25-15.45,26.78-26.78,6.52-11.33,9.78-23.86,9.78-37.59s-3.26-26.26-9.78-37.59c-6.52-11.33-15.45-20.25-26.78-26.78ZM453.59,98.26c-4.12,7.28-9.78,12.98-16.99,17.1-7.21,4.12-15.28,6.18-24.2,6.18s-16.82-2.06-24.1-6.18c-7.28-4.12-12.98-9.79-17.1-17-4.12-7.21-6.18-15.28-6.18-24.2s2.06-16.82,6.18-24.1c4.12-7.28,9.78-12.98,16.99-17.1s15.28-6.18,24.2-6.18,16.82,2.06,24.1,6.18c7.28,4.12,12.98,9.79,17.1,16.99,4.12,7.21,6.18,15.28,6.18,24.2s-2.06,16.82-6.18,24.1Z"/>
    <path class="cls-2" d="M614.78,104.03c-4.19,5.36-9.55,9.61-16.07,12.77-6.52,3.16-13.7,4.74-21.53,4.74-8.93,0-16.99-2.02-24.2-6.08-7.21-4.05-12.87-9.58-16.99-16.58s-6.18-14.63-6.18-22.87c0-8.93,2.06-17.13,6.18-24.62,4.12-7.48,9.78-13.46,16.99-17.92,7.21-4.46,15.28-6.69,24.2-6.69,7.83,0,15,1.54,21.53,4.63,6.52,3.09,11.84,7.28,15.96,12.57,4.12,5.29,6.93,11.16,8.45,17.61h27.4c-1.65-11.54-5.87-22.01-12.67-31.41-6.8-9.4-15.49-16.79-26.06-22.14-10.58-5.36-22.11-8.03-34.61-8.03-13.73,0-26.26,3.43-37.59,10.3-11.33,6.87-20.26,16.14-26.78,27.81-6.52,11.67-9.79,24.38-9.79,38.11s3.26,25.1,9.79,36.15c6.52,11.06,15.45,19.81,26.78,26.26,11.33,6.46,23.86,9.68,37.59,9.68,12.5,0,24.07-2.71,34.71-8.14,10.64-5.42,19.36-12.87,26.16-22.35s11.02-19.98,12.67-31.52h-27.4c-1.51,6.46-4.36,12.36-8.55,17.71Z"/>
    <path class="cls-2" d="M805.73,111.75c6.52-11.33,9.78-23.86,9.78-37.59s-3.26-26.26-9.78-37.59c-6.52-11.33-15.45-20.25-26.78-26.78-11.33-6.52-23.86-9.79-37.59-9.79s-26.26,3.26-37.59,9.79c-11.33,6.52-20.26,15.45-26.78,26.78-6.52,11.33-9.79,23.86-9.79,37.59s3.26,26.26,9.79,37.59c6.52,11.33,15.45,20.26,26.78,26.78,11.33,6.52,23.86,9.78,37.59,9.78s26.26-3.26,37.59-9.78c.61-.35,1.19-.74,1.78-1.1l11.09,11.09,18.95-18.75-10.22-10.22c1.86-2.46,3.59-5.06,5.17-7.81ZM741.36,121.54c-8.79,0-16.82-2.06-24.1-6.18-7.28-4.12-12.98-9.79-17.1-17-4.12-7.21-6.18-15.28-6.18-24.2s2.06-16.82,6.18-24.1c4.12-7.28,9.78-12.98,16.99-17.1s15.28-6.18,24.2-6.18,16.82,2.06,24.1,6.18c7.28,4.12,12.98,9.79,17.1,16.99,4.12,7.21,6.18,15.28,6.18,24.2s-2.06,16.82-6.18,24.1c-.4.7-.82,1.38-1.25,2.05l-30.89-30.89-18.95,18.75,29.47,29.47c-5.99,2.58-12.52,3.9-19.58,3.9Z"/>
  </g>
</svg>