<svg width="259" height="38" viewBox="0 0 259 38" fill="none" xmlns="http://www.w3.org/2000/svg">
<path d="M249.364 30.4C247.204 30.4 245.337 30.04 243.764 29.32C242.217 28.5734 240.897 27.5867 239.804 26.36L241.964 24.48C242.95 25.52 244.03 26.32 245.204 26.88C246.377 27.44 247.79 27.72 249.444 27.72C251.044 27.72 252.35 27.44 253.364 26.88C254.404 26.2933 254.924 25.3867 254.924 24.16C254.924 23.6267 254.817 23.1867 254.604 22.84C254.417 22.4667 254.15 22.1734 253.804 21.96C253.457 21.7467 253.07 21.5867 252.644 21.48C252.217 21.3467 251.764 21.24 251.284 21.16L248.044 20.68C247.324 20.5734 246.537 20.4267 245.684 20.24C244.857 20.0534 244.097 19.76 243.404 19.36C242.71 18.9334 242.124 18.3733 241.644 17.68C241.19 16.9867 240.964 16.08 240.964 14.96C240.964 13.92 241.164 13.0267 241.564 12.28C241.99 11.5067 242.577 10.8667 243.324 10.36C244.07 9.82668 244.95 9.44002 245.964 9.20002C246.977 8.93335 248.084 8.80002 249.284 8.80002C251.15 8.80002 252.764 9.09335 254.124 9.68002C255.51 10.2667 256.697 11.08 257.684 12.12L255.604 14.08C255.364 13.7867 255.057 13.4934 254.684 13.2C254.337 12.88 253.897 12.6 253.364 12.36C252.857 12.0933 252.257 11.88 251.564 11.72C250.87 11.56 250.07 11.48 249.164 11.48C247.537 11.48 246.284 11.76 245.404 12.32C244.55 12.88 244.124 13.6934 244.124 14.76C244.124 15.2934 244.217 15.7467 244.404 16.12C244.617 16.4667 244.897 16.7467 245.244 16.96C245.59 17.1734 245.977 17.3467 246.404 17.48C246.857 17.5867 247.31 17.68 247.764 17.76L251.004 18.24C251.75 18.3467 252.537 18.4933 253.364 18.68C254.19 18.8667 254.95 19.1734 255.644 19.6C256.337 20 256.91 20.5467 257.364 21.24C257.844 21.9334 258.084 22.84 258.084 23.96C258.084 26.0134 257.284 27.6 255.684 28.72C254.11 29.84 252.004 30.4 249.364 30.4Z" fill="white"/>
<path d="M226.139 29.92C224.566 29.92 223.406 29.48 222.659 28.6C221.939 27.72 221.579 26.5867 221.579 25.2V12H214.699V9.28H219.819C220.513 9.28 220.993 9.14667 221.259 8.88C221.553 8.58667 221.699 8.09333 221.699 7.4V2H224.779V9.28H234.179V12H224.779V27.2H234.179V29.92H226.139Z" fill="white"/>
<path d="M201.875 30.4C200.382 30.4 199.048 30.1467 197.875 29.64C196.728 29.1067 195.755 28.3734 194.955 27.44C194.155 26.5067 193.542 25.3734 193.115 24.04C192.715 22.7067 192.515 21.2267 192.515 19.6C192.515 17.9734 192.728 16.4934 193.155 15.16C193.582 13.8267 194.195 12.6934 194.995 11.76C195.795 10.8 196.768 10.0667 197.915 9.56002C199.062 9.05335 200.368 8.80002 201.835 8.80002C203.835 8.80002 205.462 9.24002 206.715 10.12C207.968 11 208.888 12.1467 209.475 13.56L206.915 14.92C206.542 13.8533 205.915 13.0267 205.035 12.44C204.182 11.8534 203.115 11.56 201.835 11.56C200.902 11.56 200.062 11.72 199.315 12.04C198.595 12.3334 197.982 12.76 197.475 13.32C196.968 13.88 196.582 14.5467 196.315 15.32C196.075 16.0934 195.955 16.9334 195.955 17.84V21.36C195.955 22.2667 196.075 23.1067 196.315 23.88C196.582 24.6533 196.968 25.32 197.475 25.88C197.982 26.44 198.608 26.88 199.355 27.2C200.102 27.4934 200.955 27.64 201.915 27.64C203.302 27.64 204.448 27.32 205.355 26.68C206.262 26.04 206.982 25.16 207.515 24.04L209.795 25.6C209.182 26.9867 208.222 28.1333 206.915 29.04C205.635 29.9467 203.955 30.4 201.875 30.4Z" fill="white"/>
<path d="M177.531 30.4C176.037 30.4 174.691 30.1467 173.491 29.64C172.317 29.1334 171.304 28.4134 170.451 27.48C169.624 26.52 168.984 25.3867 168.531 24.08C168.077 22.7467 167.851 21.2667 167.851 19.64C167.851 17.9867 168.077 16.4934 168.531 15.16C169.011 13.8267 169.664 12.6934 170.491 11.76C171.317 10.8 172.304 10.0667 173.451 9.56002C174.624 9.05335 175.917 8.80002 177.331 8.80002C178.717 8.80002 179.971 9.05335 181.091 9.56002C182.237 10.0667 183.211 10.7734 184.011 11.68C184.811 12.56 185.424 13.6134 185.851 14.84C186.277 16.0667 186.491 17.4133 186.491 18.88V20.4H171.211V21.36C171.211 22.2667 171.357 23.1067 171.651 23.88C171.944 24.6533 172.357 25.32 172.891 25.88C173.451 26.44 174.117 26.88 174.891 27.2C175.691 27.4934 176.571 27.64 177.531 27.64C178.917 27.64 180.117 27.32 181.131 26.68C182.144 26.04 182.917 25.16 183.451 24.04L185.811 25.64C185.197 27.0267 184.171 28.1734 182.731 29.08C181.317 29.96 179.584 30.4 177.531 30.4ZM177.331 11.44C176.451 11.44 175.637 11.6 174.891 11.92C174.144 12.24 173.491 12.68 172.931 13.24C172.397 13.8 171.971 14.4667 171.651 15.24C171.357 15.9867 171.211 16.8133 171.211 17.72V18H183.051V17.56C183.051 16.6533 182.904 15.8267 182.611 15.08C182.344 14.3334 181.957 13.6933 181.451 13.16C180.971 12.6 180.371 12.1734 179.651 11.88C178.957 11.5867 178.184 11.44 177.331 11.44Z" fill="white"/>
<path d="M145.266 35.2H155.266V12H144.906V9.28H158.466V33.2C158.466 34.5867 158.093 35.72 157.346 36.6C156.626 37.48 155.48 37.92 153.906 37.92H145.266V35.2ZM156.866 4.72C155.933 4.72 155.28 4.53333 154.906 4.16C154.533 3.76 154.346 3.26667 154.346 2.68V2.04C154.346 1.45333 154.533 0.973333 154.906 0.599999C155.28 0.2 155.933 0 156.866 0C157.8 0 158.453 0.2 158.826 0.599999C159.2 0.973333 159.386 1.45333 159.386 2.04V2.68C159.386 3.26667 159.2 3.76 158.826 4.16C158.453 4.53333 157.8 4.72 156.866 4.72Z" fill="white"/>
<path d="M129.202 30.4C127.762 30.4 126.455 30.1467 125.282 29.64C124.135 29.1334 123.149 28.4134 122.322 27.48C121.522 26.52 120.909 25.3867 120.482 24.08C120.055 22.7467 119.842 21.2534 119.842 19.6C119.842 17.9734 120.055 16.4934 120.482 15.16C120.909 13.8267 121.522 12.6934 122.322 11.76C123.149 10.8 124.135 10.0667 125.282 9.56002C126.455 9.05335 127.762 8.80002 129.202 8.80002C130.642 8.80002 131.935 9.05335 133.082 9.56002C134.255 10.0667 135.242 10.8 136.042 11.76C136.869 12.6934 137.495 13.8267 137.922 15.16C138.349 16.4934 138.562 17.9734 138.562 19.6C138.562 21.2534 138.349 22.7467 137.922 24.08C137.495 25.3867 136.869 26.52 136.042 27.48C135.242 28.4134 134.255 29.1334 133.082 29.64C131.935 30.1467 130.642 30.4 129.202 30.4ZM129.202 27.64C130.989 27.64 132.429 27.1067 133.522 26.04C134.615 24.9733 135.162 23.32 135.162 21.08V18.12C135.162 15.88 134.615 14.2267 133.522 13.16C132.429 12.0933 130.989 11.56 129.202 11.56C127.415 11.56 125.975 12.0933 124.882 13.16C123.789 14.2267 123.242 15.88 123.242 18.12V21.08C123.242 23.32 123.789 24.9733 124.882 26.04C125.975 27.1067 127.415 27.64 129.202 27.64Z" fill="white"/>
<path d="M96.2975 27.2H102.338V12H96.2975V9.28H105.538V14.48H105.738C106.164 12.8533 106.964 11.5867 108.138 10.68C109.338 9.74667 110.858 9.28 112.698 9.28H115.578V12.48H111.698C109.858 12.48 108.364 13.0133 107.218 14.08C106.098 15.1467 105.538 16.5467 105.538 18.28V27.2H113.538V29.92H96.2975V27.2Z" fill="white"/>
<path d="M72.8331 29.92V2H82.9931C85.5798 2 87.5531 2.70667 88.9131 4.12C90.2731 5.53333 90.9531 7.50667 90.9531 10.04C90.9531 12.5733 90.2731 14.5467 88.9131 15.96C87.5531 17.3733 85.5798 18.08 82.9931 18.08H76.1931V29.92H72.8331ZM76.1931 15.16H82.9131C84.3265 15.16 85.4198 14.8133 86.1931 14.12C86.9931 13.4 87.3931 12.3867 87.3931 11.08V9C87.3931 7.69333 86.9931 6.69333 86.1931 6C85.4198 5.28 84.3265 4.92 82.9131 4.92H76.1931V15.16Z" fill="white"/>
<path d="M39.9444 9.28H43.1444L32.9044 34.44C32.6644 35.0267 32.3977 35.5333 32.1044 35.96C31.811 36.4133 31.4644 36.7733 31.0644 37.04C30.6644 37.3333 30.1844 37.5467 29.6244 37.68C29.0644 37.84 28.3977 37.92 27.6244 37.92H24.5844V35.2H29.3844L31.7044 29.52L23.3844 9.28H26.6644L30.1444 17.92L33.2244 25.76H33.3844L36.4644 17.92L39.9444 9.28Z" fill="white"/>
<path d="M15.48 7.08H15.16L9.28 21.44L3.4 7.08H3.08V29.92H0V2H4.32L9.24 14.32H9.48L14.4 2H18.56V29.92H15.48V7.08Z" fill="white"/>
</svg>
