<svg width="158" height="30" viewBox="0 0 158 30" fill="none" xmlns="http://www.w3.org/2000/svg">
<path d="M149.124 26.2429C148.084 25.8162 147.404 25.2295 147.084 24.4829C146.791 23.7095 146.737 22.5229 146.924 20.9229C146.977 20.0962 147.004 19.5495 147.004 19.2829C147.004 19.0162 146.857 18.7495 146.564 18.4829C146.484 18.3762 146.337 18.2295 146.124 18.0429C145.937 17.8562 145.857 17.6962 145.884 17.5629C145.857 17.3762 145.871 17.1762 145.924 16.9629C145.977 16.7229 146.057 16.6029 146.164 16.6029C146.271 16.6029 146.377 16.5762 146.484 16.5229C146.617 16.4695 146.737 16.4695 146.844 16.5229C146.951 16.5229 147.071 16.5362 147.204 16.5629C147.337 16.5895 147.404 16.6562 147.404 16.7629C147.511 16.9495 147.684 16.9762 147.924 16.8429C148.164 16.6829 148.417 16.3362 148.684 15.8029C148.951 15.3762 149.297 14.9495 149.724 14.5229C150.177 14.0962 150.617 13.7095 151.044 13.3629C151.497 12.9895 151.871 12.7229 152.164 12.5629C152.297 12.5095 152.497 12.4429 152.764 12.3629C153.031 12.2829 153.311 12.2162 153.604 12.1629C153.924 12.1095 154.191 12.0962 154.404 12.1229C154.884 12.1495 155.284 12.2829 155.604 12.5229C155.951 12.7629 156.271 13.0429 156.564 13.3629C156.911 13.6029 157.124 13.9229 157.204 14.3229C157.311 14.7229 157.337 15.1495 157.284 15.6029C157.231 16.0562 157.111 16.4695 156.924 16.8429C156.844 17.1095 156.617 17.4295 156.244 17.8029C155.871 18.1762 155.444 18.5362 154.964 18.8829C154.484 19.2295 154.044 19.4829 153.644 19.6429C153.297 19.7229 152.844 19.7895 152.284 19.8429C151.751 19.8962 151.244 19.9229 150.764 19.9229C150.311 19.8962 150.004 19.8429 149.844 19.7629C149.657 19.6562 149.511 19.8029 149.404 20.2029C149.297 20.6029 149.217 21.1762 149.164 21.9229C149.111 22.5095 149.111 22.9362 149.164 23.2029C149.217 23.4695 149.271 23.6562 149.324 23.7629C149.511 23.9495 149.764 24.1895 150.084 24.4829C150.431 24.7495 150.911 24.7895 151.524 24.6029C152.031 24.4695 152.524 24.1229 153.004 23.5629C153.511 23.0029 153.977 22.5495 154.404 22.2029C154.511 22.0162 154.684 21.9095 154.924 21.8829C155.191 21.8295 155.471 21.8429 155.764 21.9229C156.057 22.1095 156.177 22.3362 156.124 22.6029C156.097 22.8429 155.964 23.2162 155.724 23.7229C155.644 23.9095 155.457 24.1495 155.164 24.4429C154.897 24.7095 154.591 24.9895 154.244 25.2829C153.924 25.5495 153.631 25.7629 153.364 25.9229C152.564 26.3495 151.817 26.5762 151.124 26.6029C150.431 26.6029 149.764 26.4829 149.124 26.2429ZM151.484 18.1229C152.071 17.9895 152.537 17.8962 152.884 17.8429C153.231 17.7895 153.564 17.6429 153.884 17.4029C154.204 17.1362 154.604 16.6429 155.084 15.9229C155.191 15.6295 155.217 15.3362 155.164 15.0429C155.137 14.7495 155.071 14.5495 154.964 14.4429C154.724 14.1762 154.431 14.0962 154.084 14.2029C153.764 14.2829 153.457 14.4295 153.164 14.6429C152.977 14.7229 152.697 14.9229 152.324 15.2429C151.977 15.5362 151.631 15.8829 151.284 16.2829C150.937 16.6562 150.657 17.0029 150.444 17.3229C150.231 17.6429 150.177 17.8295 150.284 17.8829C150.231 17.9895 150.377 18.0562 150.724 18.0829C151.097 18.1095 151.351 18.1229 151.484 18.1229Z" fill="white"/>
<path d="M139.975 29.1228C139.948 29.2828 139.788 29.3228 139.495 29.2428C139.228 29.1895 138.988 29.0028 138.775 28.6828C138.562 28.1762 138.455 27.7095 138.455 27.2829C138.455 26.8562 138.468 26.2162 138.495 25.3628C138.655 24.4295 138.868 23.2162 139.135 21.7228C139.428 20.2028 139.762 18.5095 140.135 16.6428C140.535 14.7495 140.962 12.7762 141.415 10.7228C141.735 9.65618 141.988 8.68285 142.175 7.80285C142.388 6.89618 142.548 6.16285 142.655 5.60285C142.762 5.04285 142.815 4.76285 142.815 4.76285C142.815 4.68285 142.735 4.72285 142.575 4.88285C142.442 5.01618 142.308 5.17618 142.175 5.36285C142.042 5.54951 141.988 5.69618 142.015 5.80285C142.015 5.80285 141.922 5.93618 141.735 6.20285C141.548 6.46951 141.308 6.82951 141.015 7.28285C140.748 7.54951 140.428 8.08285 140.055 8.88285C139.682 9.68285 139.268 10.4295 138.815 11.1228C138.388 11.9228 137.935 12.7895 137.455 13.7228C136.975 14.6295 136.548 15.3895 136.175 16.0028C135.935 16.3495 135.695 16.7495 135.455 17.2028C135.215 17.6562 135.068 17.9495 135.015 18.0828C134.908 18.3762 134.722 18.7362 134.455 19.1628C134.188 19.5628 133.895 19.9628 133.575 20.3628C133.415 20.6028 133.255 20.8562 133.095 21.1228C132.935 21.3628 132.802 21.5762 132.695 21.7628C132.615 21.9228 132.575 22.0028 132.575 22.0028C132.575 22.0828 132.442 22.3228 132.175 22.7228C131.935 23.1228 131.628 23.5628 131.255 24.0428C130.908 24.5228 130.575 24.9362 130.255 25.2828C129.322 26.2695 128.575 26.8562 128.015 27.0428C127.455 27.2028 126.828 26.9628 126.135 26.3228C125.788 25.8962 125.535 25.4162 125.375 24.8828C125.215 24.3228 125.148 23.6428 125.175 22.8428C125.202 22.0162 125.295 20.9895 125.455 19.7628C125.642 18.8295 125.815 17.8962 125.975 16.9628C126.135 16.0028 126.282 15.1095 126.415 14.2828C126.575 13.4295 126.708 12.7095 126.815 12.1228C126.948 11.5362 127.055 11.1495 127.135 10.9628C127.188 10.4295 127.175 10.1362 127.095 10.0828C127.015 10.0295 126.855 10.1895 126.615 10.5628C126.508 10.7495 126.228 11.2162 125.775 11.9628C125.322 12.6828 124.788 13.5762 124.175 14.6428C123.588 15.7095 123.002 16.8695 122.415 18.1228C121.322 20.1495 120.415 21.8295 119.695 23.1628C119.002 24.4695 118.442 25.5095 118.015 26.2828C117.615 27.0562 117.322 27.6295 117.135 28.0028C116.948 28.3762 116.815 28.6295 116.735 28.7628C116.655 28.8962 116.588 28.9895 116.535 29.0428C116.295 29.0428 116.042 28.9362 115.775 28.7228C115.535 28.5362 115.282 28.3095 115.015 28.0428C114.935 27.8562 114.895 27.6695 114.895 27.4828C114.922 27.2962 115.015 27.0295 115.175 26.6828C115.335 26.3095 115.575 25.7495 115.895 25.0028C116.242 24.3095 116.562 23.7095 116.855 23.2028C117.148 22.6695 117.375 22.3495 117.535 22.2428C117.668 22.0295 117.788 21.8162 117.895 21.6028C118.002 21.3895 118.068 21.1362 118.095 20.8428C118.228 20.6828 118.428 20.3628 118.695 19.8828C118.988 19.3762 119.282 18.8295 119.575 18.2428C119.788 17.8962 120.055 17.4428 120.375 16.8828C120.722 16.3228 121.082 15.7095 121.455 15.0428C121.828 14.3495 122.162 13.6962 122.455 13.0828C123.682 10.9762 124.722 9.20285 125.575 7.76285C126.428 6.29618 127.068 5.36285 127.495 4.96285C127.628 4.82951 127.762 4.64285 127.895 4.40285C128.055 4.16285 128.135 3.94951 128.135 3.76285C128.135 3.20285 128.242 2.69618 128.455 2.24285C128.695 1.76285 128.935 1.54951 129.175 1.60285C129.442 1.60285 129.682 1.62951 129.895 1.68285C130.108 1.73618 130.335 1.90951 130.575 2.20285C130.788 2.52285 130.975 2.84285 131.135 3.16285C131.295 3.48285 131.282 4.12285 131.095 5.08285C131.095 5.45618 131.055 5.88285 130.975 6.36285C130.895 6.81618 130.815 7.24285 130.735 7.64285C130.682 8.01618 130.642 8.30952 130.615 8.52285C130.268 9.56285 129.948 10.7362 129.655 12.0428C129.362 13.3228 129.095 14.6295 128.855 15.9628C128.615 17.2695 128.415 18.4962 128.255 19.6428C128.095 20.7628 127.988 21.6962 127.935 22.4428C127.908 23.1628 127.935 23.5762 128.015 23.6828C128.202 23.7895 128.362 23.8028 128.495 23.7228C128.628 23.6428 128.855 23.2962 129.175 22.6828C129.362 22.3628 129.615 21.9762 129.935 21.5228C130.282 21.0428 130.615 20.6028 130.935 20.2028C131.148 19.8295 131.482 19.2695 131.935 18.5228C132.388 17.7762 132.962 16.8162 133.655 15.6428C134.375 14.4695 135.228 13.0428 136.215 11.3628C137.228 9.65618 138.375 7.68285 139.655 5.44285C140.268 4.50951 140.842 3.60285 141.375 2.72285C141.935 1.81618 142.388 1.22951 142.735 0.962848C143.108 0.616181 143.495 0.536181 143.895 0.722847C144.295 0.882848 144.642 1.22951 144.935 1.76285C145.255 2.29618 145.428 2.96285 145.455 3.76285C145.482 4.13618 145.428 4.73618 145.295 5.56285C145.188 6.38951 145.015 7.33618 144.775 8.40285C144.535 9.44285 144.228 10.5228 143.855 11.6428C143.775 12.0962 143.642 12.6695 143.455 13.3628C143.295 14.0295 143.108 14.7228 142.895 15.4428C142.682 16.1628 142.468 16.8428 142.255 17.4828C142.122 18.3628 141.962 19.2295 141.775 20.0828C141.615 20.9362 141.562 21.5095 141.615 21.8028C141.375 22.2295 141.215 22.8428 141.135 23.6428C141.055 24.4428 141.015 25.2695 141.015 26.1228C140.908 27.1628 140.828 27.8962 140.775 28.3228C140.722 28.7495 140.628 28.9495 140.495 28.9228C140.148 28.8162 139.975 28.8828 139.975 29.1228Z" fill="white"/>
<path d="M97.7653 26.9229C97.472 26.8695 97.1653 26.7229 96.8453 26.4829C96.552 26.2162 96.2853 25.9229 96.0453 25.6029C95.832 25.2562 95.6853 24.9495 95.6053 24.6829C95.6053 24.6295 95.5653 24.5629 95.4853 24.4829C95.432 24.4029 95.4053 24.3629 95.4053 24.3629C95.2987 24.2829 95.232 23.9362 95.2053 23.3229C95.2053 22.6829 95.2453 21.9762 95.3253 21.2029C95.4053 20.4295 95.4987 19.8162 95.6053 19.3629C95.7387 18.9362 95.9387 18.3629 96.2053 17.6429C96.472 16.8962 96.6987 16.2295 96.8853 15.6429L97.9653 13.3229L96.3653 12.8829C96.1787 12.8295 96.0187 12.7229 95.8853 12.5629C95.7787 12.4029 95.7253 12.2695 95.7253 12.1629C95.7253 11.9495 95.8453 11.6962 96.0853 11.4029C96.3253 11.0829 96.4987 10.9229 96.6053 10.9229C96.7387 10.9495 96.9787 10.9629 97.3253 10.9629C97.6987 10.9629 98.0587 10.9495 98.4053 10.9229C98.752 10.8962 98.9653 10.8695 99.0453 10.8429C99.152 10.7895 99.2587 10.7229 99.3653 10.6429C99.472 10.5362 99.552 10.3895 99.6053 10.2029C99.7387 9.90953 99.8587 9.64286 99.9653 9.40286C100.072 9.13619 100.219 8.84286 100.405 8.52286C100.592 8.17619 100.739 7.88286 100.845 7.64286C100.979 7.40286 101.179 7.06953 101.445 6.64286C101.579 6.45619 101.725 6.22952 101.885 5.96286C102.045 5.69619 102.245 5.46952 102.485 5.28286C102.725 5.06952 102.965 4.97619 103.205 5.00286C103.472 5.00286 103.805 5.17619 104.205 5.52286C104.419 5.78952 104.539 5.98953 104.565 6.12286C104.592 6.25619 104.485 6.50952 104.245 6.88286C104.032 7.33619 103.779 7.78952 103.485 8.24286C103.219 8.69619 102.965 9.14952 102.725 9.60286C102.299 10.1895 102.219 10.5229 102.485 10.6029C102.752 10.6829 103.499 10.6295 104.725 10.4429C105.499 10.3095 106.059 10.3495 106.405 10.5629C106.752 10.7495 106.952 11.0695 107.005 11.5229C107.085 12.1629 107.019 12.5495 106.805 12.6829C106.592 12.8162 105.979 12.8829 104.965 12.8829C104.325 12.9895 103.779 13.0562 103.325 13.0829C102.872 13.0829 102.539 13.0829 102.325 13.0829C101.979 13.1095 101.752 13.1229 101.645 13.1229C101.539 13.1229 101.379 13.1495 101.165 13.2029C100.952 13.2562 100.792 13.3495 100.685 13.4829C100.605 13.5895 100.512 13.7495 100.405 13.9629C100.299 14.0695 100.139 14.3495 99.9253 14.8029C99.712 15.2562 99.4453 15.7495 99.1253 16.2829C98.752 17.4029 98.432 18.5229 98.1653 19.6429C97.8987 20.7362 97.6853 21.8029 97.5253 22.8429C97.4187 23.5095 97.432 23.9762 97.5653 24.2429C97.6987 24.4829 98.0453 24.6295 98.6053 24.6829C98.8987 24.7095 99.3653 24.7095 100.005 24.6829C100.672 24.6295 101.192 24.5495 101.565 24.4429C101.859 24.3095 102.165 24.1762 102.485 24.0429C102.805 23.8829 103.099 23.7229 103.365 23.5629C103.605 23.4295 103.845 23.2962 104.085 23.1629C104.325 23.0029 104.445 22.9229 104.445 22.9229C104.579 22.7095 104.725 22.6429 104.885 22.7229C105.045 22.8029 105.179 23.0029 105.285 23.3229C105.285 23.6429 105.219 23.9762 105.085 24.3229C104.952 24.6695 104.459 25.0829 103.605 25.5629C102.405 26.3095 101.299 26.7629 100.285 26.9229C99.2987 27.0562 98.4587 27.0562 97.7653 26.9229Z" fill="white"/>
<path d="M85.4435 26.1629C85.0968 26.3229 84.6968 26.3895 84.2434 26.3629C83.7901 26.3362 83.1768 26.1895 82.4035 25.9229C82.3501 25.9229 82.2301 25.8695 82.0434 25.7629C81.8834 25.6562 81.7101 25.5229 81.5235 25.3629C81.3635 25.1762 81.2301 24.9762 81.1235 24.7629C80.6968 24.1495 80.5234 23.2429 80.6034 22.0429C80.6834 20.8429 81.0568 19.4029 81.7234 17.7229C81.9101 17.3229 82.1901 16.8162 82.5634 16.2029C82.9634 15.5895 83.3501 15.0295 83.7234 14.5229C84.1234 13.9895 84.4034 13.6829 84.5634 13.6029C84.5634 13.6029 84.7101 13.5495 85.0034 13.4429C85.2968 13.3362 85.6701 13.1629 86.1235 12.9229C86.2568 12.8695 86.4034 12.8162 86.5634 12.7629C86.7501 12.7095 86.9368 12.6695 87.1235 12.6429C87.3101 12.6162 87.4701 12.6162 87.6034 12.6429C88.1368 12.6695 88.6834 12.8695 89.2434 13.2429C89.8301 13.5895 90.3101 14.0029 90.6834 14.4829C91.0568 14.9362 91.1768 15.3362 91.0434 15.6829C91.0434 15.7362 90.9635 15.8429 90.8035 16.0029C90.6701 16.1362 90.5101 16.2829 90.3234 16.4429C90.1634 16.5762 90.0301 16.7095 89.9234 16.8429C89.7901 17.0029 89.6034 17.0695 89.3634 17.0429C89.1501 17.0162 88.9501 16.9095 88.7635 16.7229C88.6035 16.5095 88.5101 16.2429 88.4835 15.9229C88.4301 15.7095 88.2301 15.5095 87.8834 15.3229C87.5634 15.1362 87.4035 15.0429 87.4035 15.0429C87.1901 15.0429 86.8835 15.2429 86.4835 15.6429C86.1101 16.0162 85.7368 16.4695 85.3634 17.0029C84.8834 17.4829 84.4701 18.0562 84.1235 18.7229C83.7768 19.3629 83.4968 19.9762 83.2834 20.5629C83.0968 21.1229 82.9634 21.5229 82.8834 21.7629C82.7768 22.0295 82.7635 22.4029 82.8435 22.8829C82.9235 23.3629 83.0168 23.6562 83.1235 23.7629C83.2301 23.8162 83.4968 23.8295 83.9234 23.8029C84.3768 23.7762 84.9101 23.7229 85.5235 23.6429C86.1368 23.5362 86.7368 23.4162 87.3234 23.2829C87.9101 23.1495 88.3901 23.0029 88.7635 22.8429C89.2701 22.5229 89.7101 22.3362 90.0835 22.2829C90.4568 22.2295 90.7368 22.2295 90.9234 22.2829C91.2168 22.3895 91.3901 22.5362 91.4435 22.7229C91.4968 22.9095 91.4301 23.1229 91.2434 23.3629C91.0568 23.5762 90.7368 23.8029 90.2834 24.0429C89.8568 24.2562 89.4701 24.4962 89.1235 24.7629C88.8035 25.0029 88.6434 25.1895 88.6434 25.3229C88.5368 25.3229 88.4168 25.3629 88.2834 25.4429C88.1768 25.4962 88.0834 25.5095 88.0034 25.4829C87.9501 25.4829 87.7368 25.5229 87.3634 25.6029C86.9901 25.6829 86.6035 25.7762 86.2035 25.8829C85.8301 25.9895 85.5768 26.0829 85.4435 26.1629Z" fill="white"/>
<path d="M67.0288 26.0429C66.8154 26.0962 66.5354 26.1229 66.1888 26.1229C65.8421 26.0962 65.5354 26.0562 65.2688 26.0029C65.0288 25.9229 64.9088 25.8429 64.9088 25.7629C64.9088 25.6295 64.8421 25.5629 64.7088 25.5629C64.7088 25.5629 64.6421 25.5095 64.5088 25.4029C64.4021 25.2962 64.2288 25.1895 63.9888 25.0829C63.7488 24.7095 63.6288 24.3095 63.6288 23.8829C63.6288 23.4295 63.7488 22.7229 63.9888 21.7629C64.0688 21.0962 64.3221 20.3229 64.7488 19.4429C65.2021 18.5362 65.7488 17.6162 66.3888 16.6829C67.0288 15.7495 67.6954 14.9095 68.3888 14.1629C69.1088 13.4162 69.7621 12.8695 70.3488 12.5229C70.7221 12.1495 71.1754 11.9495 71.7088 11.9229C72.2421 11.8962 72.7488 12.0162 73.2288 12.2829C73.4954 12.4162 73.7621 12.6295 74.0288 12.9229C74.2954 13.2162 74.5488 13.5362 74.7888 13.8829C75.0288 14.2295 75.2288 14.5762 75.3888 14.9229C75.4688 15.2162 75.5088 15.4829 75.5088 15.7229C75.5354 15.9362 75.5354 16.2029 75.5088 16.5229C75.5088 16.8429 75.4688 17.3229 75.3888 17.9629C75.2554 18.4429 75.1354 19.0295 75.0288 19.7229C74.9488 20.4162 74.9088 21.0162 74.9088 21.5229C74.8554 22.0295 74.9088 22.3895 75.0688 22.6029C75.2554 22.8162 75.5221 22.8295 75.8688 22.6429C76.1888 22.4829 76.4954 22.4162 76.7888 22.4429C77.0821 22.4429 77.3088 22.5229 77.4688 22.6829C77.6554 22.8429 77.7488 23.0829 77.7488 23.4029C77.7488 23.7229 77.5888 24.0562 77.2688 24.4029C76.9754 24.7229 76.6021 25.0029 76.1488 25.2429C75.7221 25.4562 75.3088 25.5629 74.9088 25.5629C74.6154 25.5629 74.3354 25.3895 74.0688 25.0429C73.8021 24.6695 73.5621 24.2295 73.3488 23.7229C73.1621 23.1895 72.9888 22.6829 72.8288 22.2029L72.5888 21.2829L70.8688 22.9229C70.5221 23.2962 70.1754 23.6429 69.8288 23.9629C69.5088 24.2562 69.3088 24.4695 69.2288 24.6029C69.0954 24.8429 68.8421 25.0829 68.4688 25.3229C68.1221 25.5629 67.6421 25.8029 67.0288 26.0429ZM67.1488 23.6829C67.6021 23.4162 68.1221 23.0295 68.7088 22.5229C69.2954 21.9895 69.8688 21.4162 70.4288 20.8029C70.9888 20.1629 71.4554 19.5762 71.8288 19.0429C72.2821 18.4295 72.6288 17.8562 72.8688 17.3229C73.1088 16.7895 73.2821 16.2829 73.3888 15.8029C73.2821 15.5095 73.1088 15.2029 72.8688 14.8829C72.6288 14.5362 72.4154 14.3495 72.2288 14.3229C71.6421 14.3229 71.0154 14.6962 70.3488 15.4429C69.7088 16.1629 69.0821 16.9495 68.4688 17.8029C68.3621 17.9362 68.2154 18.1495 68.0288 18.4429C67.8421 18.7362 67.6554 19.0162 67.4688 19.2829C67.3088 19.5229 67.2021 19.6829 67.1488 19.7629C67.0688 19.8695 66.9088 20.1762 66.6688 20.6829C66.4554 21.1629 66.2421 21.6562 66.0288 22.1629C65.8154 22.6429 65.7088 22.9629 65.7088 23.1229C65.7088 23.2829 65.7221 23.4562 65.7488 23.6429C65.8021 23.8295 65.9354 23.9495 66.1488 24.0029C66.3621 24.0562 66.6954 23.9495 67.1488 23.6829Z" fill="white"/>
<path d="M55.3866 27.1228C55.0132 27.0162 54.7066 26.8962 54.4666 26.7628C54.2266 26.6028 53.9066 26.3495 53.5066 26.0028C53.1866 25.5762 52.9332 25.1762 52.7466 24.8028C52.5866 24.4295 52.4799 24.0028 52.4266 23.5228C52.3732 23.0162 52.3466 22.3762 52.3466 21.6028C52.3466 21.2828 52.3999 20.8028 52.5066 20.1628C52.6399 19.5228 52.7866 18.8562 52.9466 18.1628C53.1332 17.4428 53.2932 16.8028 53.4266 16.2428C53.5866 15.6828 53.6799 15.3228 53.7066 15.1628C53.7866 14.8162 53.6532 14.6162 53.3066 14.5628C52.9599 14.5095 52.5732 14.4962 52.1466 14.5228C51.7466 14.5228 51.4799 14.4828 51.3466 14.4028C51.2399 14.3762 51.1866 14.3362 51.1866 14.2828C51.1866 14.2028 51.1866 14.1628 51.1866 14.1628C51.1866 14.0562 51.1732 13.9895 51.1466 13.9628C51.1466 13.9095 51.1066 13.8162 51.0266 13.6828C50.9732 13.5762 50.9999 13.4295 51.1066 13.2428C51.2399 13.0295 51.4532 12.8962 51.7466 12.8428C51.9866 12.7895 52.3066 12.7495 52.7066 12.7228C53.1332 12.6695 53.5599 12.5762 53.9866 12.4428C54.4132 12.2828 54.7599 12.0428 55.0266 11.7228C55.2666 11.1362 55.5466 10.4828 55.8666 9.76284C56.1866 9.04284 56.4932 8.40284 56.7866 7.84284C57.1066 7.25617 57.3199 6.89617 57.4266 6.76284C57.8799 6.52284 58.2132 6.4295 58.4266 6.48284C58.6399 6.5095 58.8799 6.73617 59.1466 7.16284C59.2799 7.3495 59.3732 7.49617 59.4266 7.60284C59.5066 7.7095 59.5199 7.8695 59.4666 8.08284C59.4132 8.29617 59.2666 8.6295 59.0266 9.08284C58.8132 9.53617 58.4799 10.1895 58.0266 11.0428C57.8932 11.3095 57.7732 11.5495 57.6666 11.7628C57.5599 11.9495 57.5066 12.0428 57.5066 12.0428C57.6132 12.0695 57.7732 12.0828 57.9866 12.0828C58.1999 12.0828 58.4666 12.0695 58.7866 12.0428C59.0799 11.9895 59.4532 11.9495 59.9066 11.9228C60.3599 11.8695 60.7199 11.8695 60.9866 11.9228C61.5999 11.9228 62.0532 12.0428 62.3466 12.2828C62.6399 12.4962 62.7999 12.8695 62.8266 13.4028C62.8799 13.6962 62.8132 13.8695 62.6266 13.9228C62.4666 13.9762 62.0266 14.0028 61.3066 14.0028C61.0666 14.0028 60.6932 14.0162 60.1866 14.0428C59.6799 14.0695 59.1466 14.0962 58.5866 14.1228C58.0532 14.1495 57.5866 14.1895 57.1866 14.2428C56.8132 14.2695 56.6266 14.3095 56.6266 14.3628C56.5466 14.4162 56.4132 14.6695 56.2266 15.1228C56.0666 15.5762 55.8932 16.0962 55.7066 16.6828C55.5466 17.2428 55.3999 17.7495 55.2666 18.2028C55.0799 19.1095 54.9332 20.0162 54.8266 20.9228C54.7466 21.8295 54.7332 22.6162 54.7866 23.2828C54.8399 23.9495 54.9866 24.4162 55.2266 24.6828C55.4666 24.9228 55.9332 24.9762 56.6266 24.8428C57.3199 24.6828 57.8799 24.4295 58.3066 24.0828C58.7866 23.6828 59.1732 23.4828 59.4666 23.4828C59.7866 23.4828 59.9599 23.6295 59.9866 23.9228C60.0399 24.1895 59.8932 24.5762 59.5466 25.0828C59.2266 25.5628 58.8266 25.9895 58.3466 26.3628C57.8666 26.7095 57.3599 26.9628 56.8266 27.1228C56.3199 27.2562 55.8399 27.2562 55.3866 27.1228Z" fill="white"/>
<path d="M46.5388 25.3628C46.0054 25.3628 45.5654 25.2562 45.2188 25.0428C44.8721 24.8028 44.5788 24.4162 44.3388 23.8828C44.2321 23.5095 44.1388 23.0962 44.0588 22.6428C44.0054 22.1628 43.9788 21.7228 43.9788 21.3228C43.9788 20.8962 44.0188 20.6162 44.0988 20.4828C44.2054 20.3762 44.2454 20.1895 44.2188 19.9228C44.2188 19.6295 44.2188 19.3228 44.2188 19.0028C44.1921 18.4695 44.0588 18.1762 43.8188 18.1228C43.6054 18.0428 43.2854 18.1228 42.8588 18.3628C42.3788 18.6562 41.7521 19.0562 40.9788 19.5628C40.2054 20.0428 39.3921 20.5762 38.5388 21.1628C37.7121 21.7495 36.9254 22.3628 36.1788 23.0028C35.5921 23.6428 35.2321 24.1362 35.0988 24.4828C34.9921 24.8028 34.8321 24.9628 34.6188 24.9628C34.4054 25.0695 34.2188 25.0828 34.0588 25.0028C33.9254 24.8962 33.7254 24.7362 33.4588 24.5228C33.2721 24.3095 33.0854 24.1095 32.8988 23.9228C32.7121 23.7095 32.5921 23.5495 32.5388 23.4428C32.5388 23.3095 32.5788 23.0295 32.6588 22.6028C32.7388 22.1762 32.8321 21.7495 32.9388 21.3228C33.0721 20.8962 33.1654 20.6162 33.2188 20.4828C33.3521 20.4828 33.4588 20.3495 33.5388 20.0828C33.6454 19.8162 33.8054 19.5228 34.0188 19.2028C34.0721 18.8828 34.2054 18.4562 34.4188 17.9228C34.6588 17.3628 34.8721 16.8695 35.0588 16.4428C35.4321 15.8028 35.6854 15.2695 35.8188 14.8428C35.9788 14.4162 36.0854 13.8828 36.1388 13.2428C36.1121 13.1362 36.1388 13.0428 36.2188 12.9628C36.2988 12.8562 36.3921 12.8028 36.4988 12.8028C36.7121 12.5895 36.9654 12.5362 37.2588 12.6428C37.5521 12.7228 37.8188 12.9228 38.0588 13.2428C38.5388 13.8828 38.7254 14.5495 38.6188 15.2428C38.5388 15.9095 38.1121 16.8695 37.3388 18.1228C37.1521 18.5495 37.0054 18.8828 36.8988 19.1228C36.8188 19.3362 36.7788 19.5095 36.7788 19.6428C36.7788 19.6428 36.9121 19.5495 37.1788 19.3628C37.4721 19.1762 37.7921 18.9628 38.1388 18.7228C38.5121 18.4562 38.8054 18.2562 39.0188 18.1228C39.1521 17.9895 39.4588 17.7495 39.9388 17.4028C40.4188 17.0562 40.9254 16.7228 41.4588 16.4028C42.0188 16.0562 42.4321 15.8562 42.6988 15.8028C42.9121 15.6962 43.1388 15.6028 43.3788 15.5228C43.6188 15.4162 43.7921 15.3628 43.8988 15.3628C44.1121 15.3628 44.3788 15.4828 44.6988 15.7228C45.0454 15.9362 45.3654 16.2028 45.6588 16.5228C45.9521 16.8162 46.1254 17.0695 46.1788 17.2828C46.1788 17.3895 46.1788 17.4962 46.1788 17.6028C46.2054 17.7095 46.2321 17.8162 46.2588 17.9228C46.3654 18.2695 46.4188 18.7362 46.4188 19.3228C46.4454 19.9095 46.4321 20.4428 46.3788 20.9228C46.3254 21.4028 46.2321 21.6828 46.0988 21.7628C46.0988 21.7628 46.0988 21.8028 46.0988 21.8828C46.1254 21.9362 46.1921 21.9628 46.2988 21.9628C46.2988 22.0695 46.2988 22.1362 46.2988 22.1628C46.1654 22.1628 46.1121 22.2828 46.1388 22.5228C46.1654 22.7362 46.2454 22.9762 46.3788 23.2428C46.5388 23.5095 46.6988 23.7228 46.8588 23.8828C47.1788 24.2028 47.3121 24.5095 47.2588 24.8028C47.2054 25.0695 46.9654 25.2562 46.5388 25.3628Z" fill="white"/>
<path d="M21.0372 26.6029C20.6905 26.6029 20.4105 26.5362 20.1972 26.4029C20.0105 26.2695 19.7705 26.0829 19.4772 25.8429C18.9705 25.3095 18.6105 24.8029 18.3972 24.3229C18.1839 23.8162 18.1172 23.3362 18.1972 22.8829C18.2772 22.6695 18.3039 22.4695 18.2772 22.2829C18.2772 22.0695 18.2772 21.9629 18.2772 21.9629C18.1439 21.8295 18.1039 21.7495 18.1572 21.7229C18.2105 21.6695 18.2639 21.5895 18.3172 21.4829C18.4772 21.4829 18.5305 21.3362 18.4772 21.0429C18.4239 20.8295 18.5305 20.3629 18.7972 19.6429C19.0639 18.9229 19.3972 18.2429 19.7972 17.6029C19.9572 17.3362 20.1972 16.9895 20.5172 16.5629C20.8372 16.1095 21.1839 15.6695 21.5572 15.2429C21.9572 14.7895 22.3172 14.4295 22.6372 14.1629C23.3039 13.6029 23.8905 13.1895 24.3972 12.9229C24.9039 12.6562 25.4505 12.4562 26.0372 12.3229C26.6239 12.1895 27.0239 12.1229 27.2372 12.1229C27.4772 12.1229 27.7972 12.3362 28.1972 12.7629C28.8105 13.0295 29.2505 13.3495 29.5172 13.7229C29.8105 14.0962 29.9972 14.6429 30.0772 15.3629C30.1572 16.1629 30.0905 17.0829 29.8772 18.1229C29.6905 19.1362 29.0639 20.4029 27.9972 21.9229C27.3305 22.8829 26.7172 23.6029 26.1572 24.0829C25.5972 24.5362 24.9305 24.9895 24.1572 25.4429C23.5972 25.8162 23.0905 26.0962 22.6372 26.2829C22.1839 26.4429 21.6505 26.5495 21.0372 26.6029ZM24.8772 22.3629C25.5172 21.6429 26.0239 20.9629 26.3972 20.3229C26.7972 19.6829 27.1705 18.8695 27.5172 17.8829C27.6239 17.5895 27.6905 17.2295 27.7172 16.8029C27.7439 16.3495 27.7305 15.9362 27.6772 15.5629C27.6505 15.1629 27.5572 14.9362 27.3972 14.8829C27.0772 14.6962 26.6905 14.6429 26.2372 14.7229C25.7839 14.7762 25.2905 15.0295 24.7572 15.4829C23.9305 16.1762 23.2105 17.0429 22.5972 18.0829C21.9839 19.0962 21.3839 20.2562 20.7972 21.5629C20.3972 22.5229 20.3039 23.2962 20.5172 23.8829C20.7572 24.4429 21.2505 24.6429 21.9972 24.4829C22.7705 24.2962 23.7305 23.5895 24.8772 22.3629Z" fill="white"/>
<path d="M3.97 29.4429C3.57 29.2829 3.15667 29.1095 2.73 28.9229C2.33 28.7362 1.94333 28.4562 1.57 28.0829C1.22333 27.7362 0.916667 27.2429 0.65 26.6029C0.383333 25.8295 0.196667 25.0695 0.0899999 24.3229C0.00999991 23.5762 -0.0166666 22.7095 0.00999995 21.7229C0.00999995 20.3362 0.103333 19.1362 0.29 18.1229C0.503333 17.0829 0.823333 16.0295 1.25 14.9629C1.30333 14.8829 1.39667 14.6562 1.53 14.2829C1.69 13.8829 1.86333 13.4562 2.05 13.0029C2.26333 12.5495 2.42333 12.2029 2.53 11.9629C2.74333 11.5095 3.06333 10.9095 3.49 10.1629C3.94333 9.38952 4.42333 8.64286 4.93 7.92286C5.70333 6.77619 6.34333 5.86952 6.85 5.20286C7.35667 4.53619 7.83667 3.97619 8.29 3.52286C8.74333 3.06952 9.25 2.64286 9.81 2.24286C10.3967 1.81619 11.1433 1.29619 12.05 0.682856C12.6367 0.25619 13.2767 0.0295237 13.97 0.0028574C14.69 -0.0238105 15.3567 0.136189 15.97 0.482856C16.5833 0.802857 17.0367 1.28286 17.33 1.92286C17.6233 2.48286 17.77 3.16286 17.77 3.96286C17.77 4.73619 17.65 5.56286 17.41 6.44286C17.17 7.29619 16.8367 8.10952 16.41 8.88286C15.9833 9.65619 15.49 10.2962 14.93 10.8029C14.5833 11.1229 14.2633 11.2429 13.97 11.1629C13.7033 11.0829 13.3833 10.8695 13.01 10.5229C12.77 10.0695 12.6367 9.80286 12.61 9.72286C12.61 9.64286 12.6633 9.58952 12.77 9.56286C12.93 9.37619 13.1433 9.05619 13.41 8.60286C13.6767 8.14952 13.9433 7.66952 14.21 7.16286C14.4767 6.62952 14.6633 6.20286 14.77 5.88286C14.9833 4.76286 15.13 3.97619 15.21 3.52286C15.29 3.04286 15.21 2.68286 14.97 2.44286C14.8633 2.33619 14.7033 2.29619 14.49 2.32286C14.3033 2.34952 13.9833 2.48286 13.53 2.72286C12.9167 2.98952 12.1167 3.58952 11.13 4.52286C10.1433 5.42952 9.23667 6.44286 8.41 7.56286C7.34333 8.97619 6.45 10.2295 5.73 11.3229C5.01 12.4162 4.46333 13.5362 4.09 14.6829C4.03667 14.7895 3.94333 14.9895 3.81 15.2829C3.70333 15.5762 3.65 15.7229 3.65 15.7229C3.67667 15.8295 3.63667 16.0962 3.53 16.5229C3.42333 16.9229 3.30333 17.2695 3.17 17.5629C2.87667 18.7895 2.70333 20.0695 2.65 21.4029C2.59667 22.7095 2.66333 23.8695 2.85 24.8829C3.06333 25.8962 3.37 26.6029 3.77 27.0029C4.11667 27.2429 4.58333 27.3229 5.17 27.2429C5.78333 27.1629 6.47667 26.9762 7.25 26.6829C8.02333 26.3895 8.81 26.0695 9.61 25.7229C10.25 25.4562 10.8367 25.1629 11.37 24.8429C11.9033 24.5229 12.3033 24.2429 12.57 24.0029C12.7833 23.8429 13.05 23.6829 13.37 23.5229C13.7167 23.3362 14.01 23.2429 14.25 23.2429C14.6233 23.1095 14.8367 23.0562 14.89 23.0829C14.9433 23.1095 14.97 23.2295 14.97 23.4429C14.97 23.8162 14.7567 24.2295 14.33 24.6829C13.93 25.1362 13.41 25.5495 12.77 25.9229C12.5567 26.1362 12.2767 26.3629 11.93 26.6029C11.5833 26.8429 11.2233 27.0295 10.85 27.1629C10.29 27.5895 9.59667 28.0029 8.77 28.4029C7.94333 28.8029 7.10333 29.1095 6.25 29.3229C5.42333 29.5362 4.66333 29.5762 3.97 29.4429Z" fill="white"/>
</svg>
