<svg width="186" height="35" viewBox="0 0 186 35" fill="none" xmlns="http://www.w3.org/2000/svg">
<path d="M184.22 26.098C183.953 26.098 183.673 25.9513 183.38 25.658C183.113 25.3647 182.873 25.0047 182.66 24.578C182.473 24.1247 182.38 23.698 182.38 23.298C182.38 22.898 182.473 22.1513 182.66 21.058C182.873 19.9647 183.126 18.858 183.42 17.738C183.633 17.0447 183.7 16.6447 183.62 16.538C183.54 16.4313 183.18 16.578 182.54 16.978C182.166 17.1647 181.833 17.3647 181.54 17.578C181.246 17.7647 180.993 17.978 180.78 18.218C180.646 18.3247 180.446 18.498 180.18 18.738C179.913 18.978 179.633 19.2047 179.34 19.418C178.993 19.6847 178.553 20.058 178.02 20.538C177.486 21.018 176.953 21.498 176.42 21.978C175.913 22.458 175.526 22.8313 175.26 23.098C175.206 23.2047 175.126 23.298 175.02 23.378C174.913 23.458 174.793 23.5113 174.66 23.538C174.526 23.538 174.38 23.5113 174.22 23.458C173.926 23.378 173.646 23.2047 173.38 22.938C173.14 22.6713 173.02 22.3647 173.02 22.018C173.02 21.7513 173.126 21.298 173.34 20.658C173.553 19.9913 173.833 19.1913 174.18 18.258C174.553 17.3247 174.98 16.338 175.46 15.298C175.54 15.1647 175.606 15.0047 175.66 14.818C175.713 14.6047 175.753 14.378 175.78 14.138C175.833 13.898 175.86 13.6713 175.86 13.458C175.86 13.3247 175.873 13.1913 175.9 13.058C175.953 12.898 176.006 12.7513 176.06 12.618C176.14 12.458 176.206 12.3513 176.26 12.298C176.366 12.0847 176.553 12.0313 176.82 12.138C177.086 12.218 177.313 12.4047 177.5 12.698C177.9 13.0713 178.1 13.538 178.1 14.098C178.126 14.658 177.993 15.3513 177.7 16.178C177.593 16.3647 177.5 16.5513 177.42 16.738C177.366 16.898 177.313 17.0447 177.26 17.178C177.206 17.2847 177.166 17.378 177.14 17.458C177.113 17.5113 177.1 17.538 177.1 17.538C177.206 17.538 177.446 17.418 177.82 17.178C178.193 16.938 178.633 16.6713 179.14 16.378C179.54 16.0847 179.886 15.818 180.18 15.578C180.5 15.3113 180.766 15.1113 180.98 14.978C181.193 14.818 181.326 14.738 181.38 14.738C181.486 14.738 181.62 14.698 181.78 14.618C181.94 14.538 182.073 14.4447 182.18 14.338C182.286 14.2313 182.366 14.178 182.42 14.178C182.5 14.1513 182.54 14.138 182.54 14.138C182.54 14.138 182.593 14.138 182.7 14.138C182.806 14.1113 182.913 14.0447 183.02 13.938C183.233 13.778 183.513 13.738 183.86 13.818C184.206 13.8713 184.526 14.0047 184.82 14.218C185.113 14.4313 185.26 14.6713 185.26 14.938C185.26 15.0447 185.286 15.138 185.34 15.218C185.42 15.2713 185.46 15.298 185.46 15.298C185.673 15.298 185.806 15.6313 185.86 16.298C185.94 16.9647 185.873 17.6047 185.66 18.218C185.66 18.618 185.58 19.098 185.42 19.658C185.286 20.218 185.166 20.7513 185.06 21.258C184.846 21.9247 184.7 22.5113 184.62 23.018C184.54 23.5247 184.526 23.9513 184.58 24.298C184.633 24.6447 184.726 24.9247 184.86 25.138C184.966 25.3247 184.966 25.538 184.86 25.778C184.753 25.9913 184.54 26.098 184.22 26.098Z" fill="white"/>
<path d="M160.478 25.978C160.131 25.978 159.851 25.9113 159.638 25.778C159.451 25.6447 159.211 25.458 158.918 25.218C158.411 24.6847 158.051 24.178 157.838 23.698C157.625 23.1913 157.558 22.7113 157.638 22.258C157.718 22.0447 157.745 21.8447 157.718 21.658C157.718 21.4447 157.718 21.338 157.718 21.338C157.585 21.2047 157.545 21.1247 157.598 21.098C157.651 21.0447 157.705 20.9647 157.758 20.858C157.918 20.858 157.971 20.7113 157.918 20.418C157.865 20.2047 157.971 19.738 158.238 19.018C158.505 18.298 158.838 17.618 159.238 16.978C159.398 16.7113 159.638 16.3647 159.958 15.938C160.278 15.4847 160.625 15.0447 160.998 14.618C161.398 14.1647 161.758 13.8047 162.078 13.538C162.745 12.978 163.331 12.5647 163.838 12.298C164.345 12.0313 164.891 11.8313 165.478 11.698C166.065 11.5647 166.465 11.498 166.678 11.498C166.918 11.498 167.238 11.7113 167.638 12.138C168.251 12.4047 168.691 12.7247 168.958 13.098C169.251 13.4713 169.438 14.018 169.518 14.738C169.598 15.538 169.531 16.458 169.318 17.498C169.131 18.5113 168.505 19.778 167.438 21.298C166.771 22.258 166.158 22.978 165.598 23.458C165.038 23.9113 164.371 24.3647 163.598 24.818C163.038 25.1913 162.531 25.4713 162.078 25.658C161.625 25.818 161.091 25.9247 160.478 25.978ZM164.318 21.738C164.958 21.018 165.465 20.338 165.838 19.698C166.238 19.058 166.611 18.2447 166.958 17.258C167.065 16.9647 167.131 16.6047 167.158 16.178C167.185 15.7247 167.171 15.3113 167.118 14.938C167.091 14.538 166.998 14.3113 166.838 14.258C166.518 14.0713 166.131 14.018 165.678 14.098C165.225 14.1513 164.731 14.4047 164.198 14.858C163.371 15.5513 162.651 16.418 162.038 17.458C161.425 18.4713 160.825 19.6313 160.238 20.938C159.838 21.898 159.745 22.6713 159.958 23.258C160.198 23.818 160.691 24.018 161.438 23.858C162.211 23.6713 163.171 22.9647 164.318 21.738Z" fill="white"/>
<path d="M151.017 24.618C150.911 24.618 150.777 24.5913 150.617 24.538C150.484 24.458 150.417 24.418 150.417 24.418C150.417 24.3113 150.377 24.178 150.297 24.018C150.244 23.858 150.217 23.7247 150.217 23.618C150.031 23.5113 149.924 23.4047 149.897 23.298C149.871 23.1647 149.911 22.9513 150.017 22.658C150.177 22.3913 150.391 21.9647 150.657 21.378C150.924 20.7647 151.204 20.1113 151.497 19.418C151.791 18.698 152.071 17.9913 152.337 17.298C152.604 16.6047 152.831 16.018 153.017 15.538C153.204 15.0313 153.311 14.7247 153.337 14.618C153.337 14.5113 153.377 14.378 153.457 14.218C153.537 14.058 153.631 13.9247 153.737 13.818C153.951 13.6313 154.177 13.618 154.417 13.778C154.657 13.9113 154.857 14.1513 155.017 14.498C155.204 14.818 155.297 15.178 155.297 15.578C155.297 15.7647 155.164 16.2447 154.897 17.018C154.631 17.7647 154.271 18.658 153.817 19.698C153.391 20.738 152.911 21.7913 152.377 22.858C151.977 23.6313 151.724 24.1247 151.617 24.338C151.511 24.5247 151.311 24.618 151.017 24.618ZM156.897 9.458C156.577 9.458 156.231 9.338 155.857 9.098C155.511 8.83134 155.204 8.51134 154.937 8.138C154.697 7.738 154.577 7.338 154.577 6.938C154.577 6.80467 154.657 6.618 154.817 6.378C154.977 6.138 155.137 5.898 155.297 5.658C155.457 5.418 155.537 5.27134 155.537 5.218C155.751 5.218 155.911 5.23134 156.017 5.258C156.151 5.258 156.311 5.31134 156.497 5.418C156.791 6.08467 157.151 6.63134 157.577 7.058C158.031 7.48467 158.257 7.84467 158.257 8.138C158.257 8.72467 158.204 9.098 158.097 9.258C157.991 9.39134 157.591 9.458 156.897 9.458Z" fill="white"/>
<path d="M140.175 26.298C139.882 26.2447 139.575 26.098 139.255 25.858C138.962 25.5913 138.695 25.298 138.455 24.978C138.242 24.6313 138.095 24.3247 138.015 24.058C138.015 24.0047 137.975 23.938 137.895 23.858C137.842 23.778 137.815 23.738 137.815 23.738C137.708 23.658 137.642 23.3113 137.615 22.698C137.615 22.058 137.655 21.3513 137.735 20.578C137.815 19.8047 137.908 19.1913 138.015 18.738C138.148 18.3113 138.348 17.738 138.615 17.018C138.882 16.2713 139.108 15.6047 139.295 15.018L140.375 12.698L138.775 12.258C138.588 12.2047 138.428 12.098 138.295 11.938C138.188 11.778 138.135 11.6447 138.135 11.538C138.135 11.3247 138.255 11.0713 138.495 10.778C138.735 10.458 138.908 10.298 139.015 10.298C139.148 10.3247 139.388 10.338 139.735 10.338C140.108 10.338 140.468 10.3247 140.815 10.298C141.162 10.2713 141.375 10.2447 141.455 10.218C141.562 10.1647 141.668 10.098 141.775 10.018C141.882 9.91133 141.962 9.76466 142.015 9.578C142.148 9.28466 142.268 9.01799 142.375 8.77799C142.482 8.51133 142.628 8.218 142.815 7.898C143.002 7.55133 143.148 7.25799 143.255 7.01799C143.388 6.77799 143.588 6.44466 143.855 6.018C143.988 5.83133 144.135 5.60466 144.295 5.338C144.455 5.07133 144.655 4.84466 144.895 4.65799C145.135 4.44466 145.375 4.35133 145.615 4.378C145.882 4.378 146.215 4.55133 146.615 4.89799C146.828 5.16466 146.948 5.36466 146.975 5.498C147.002 5.63133 146.895 5.88466 146.655 6.258C146.442 6.71133 146.188 7.16466 145.895 7.61799C145.628 8.07133 145.375 8.52466 145.135 8.97799C144.708 9.56466 144.628 9.898 144.895 9.97799C145.162 10.058 145.908 10.0047 147.135 9.81799C147.908 9.68466 148.468 9.72466 148.815 9.93799C149.162 10.1247 149.362 10.4447 149.415 10.898C149.495 11.538 149.428 11.9247 149.215 12.058C149.002 12.1913 148.388 12.258 147.375 12.258C146.735 12.3647 146.188 12.4313 145.735 12.458C145.282 12.458 144.948 12.458 144.735 12.458C144.388 12.4847 144.162 12.498 144.055 12.498C143.948 12.498 143.788 12.5247 143.575 12.578C143.362 12.6313 143.202 12.7247 143.095 12.858C143.015 12.9647 142.922 13.1247 142.815 13.338C142.708 13.4447 142.548 13.7247 142.335 14.178C142.122 14.6313 141.855 15.1247 141.535 15.658C141.162 16.778 140.842 17.898 140.575 19.018C140.308 20.1113 140.095 21.178 139.935 22.218C139.828 22.8847 139.842 23.3513 139.975 23.618C140.108 23.858 140.455 24.0047 141.015 24.058C141.308 24.0847 141.775 24.0847 142.415 24.058C143.082 24.0047 143.602 23.9247 143.975 23.818C144.268 23.6847 144.575 23.5513 144.895 23.418C145.215 23.258 145.508 23.098 145.775 22.938C146.015 22.8047 146.255 22.6713 146.495 22.538C146.735 22.378 146.855 22.298 146.855 22.298C146.988 22.0847 147.135 22.018 147.295 22.098C147.455 22.178 147.588 22.378 147.695 22.698C147.695 23.018 147.628 23.3513 147.495 23.698C147.362 24.0447 146.868 24.458 146.015 24.938C144.815 25.6847 143.708 26.138 142.695 26.298C141.708 26.4313 140.868 26.4313 140.175 26.298Z" fill="white"/>
<path d="M124.36 25.418C124.147 25.4713 123.867 25.498 123.52 25.498C123.174 25.4713 122.867 25.4313 122.6 25.378C122.36 25.298 122.24 25.218 122.24 25.138C122.24 25.0047 122.174 24.938 122.04 24.938C122.04 24.938 121.974 24.8847 121.84 24.778C121.734 24.6713 121.56 24.5647 121.32 24.458C121.08 24.0847 120.96 23.6847 120.96 23.258C120.96 22.8047 121.08 22.098 121.32 21.138C121.4 20.4713 121.654 19.698 122.08 18.818C122.534 17.9113 123.08 16.9913 123.72 16.058C124.36 15.1247 125.027 14.2847 125.72 13.538C126.44 12.7913 127.094 12.2447 127.68 11.898C128.054 11.5247 128.507 11.3247 129.04 11.298C129.574 11.2713 130.08 11.3913 130.56 11.658C130.827 11.7913 131.094 12.0047 131.36 12.298C131.627 12.5913 131.88 12.9113 132.12 13.258C132.36 13.6047 132.56 13.9513 132.72 14.298C132.8 14.5913 132.84 14.858 132.84 15.098C132.867 15.3113 132.867 15.578 132.84 15.898C132.84 16.218 132.8 16.698 132.72 17.338C132.587 17.818 132.467 18.4047 132.36 19.098C132.28 19.7913 132.24 20.3913 132.24 20.898C132.187 21.4047 132.24 21.7647 132.4 21.978C132.587 22.1913 132.854 22.2047 133.2 22.018C133.52 21.858 133.827 21.7913 134.12 21.818C134.414 21.818 134.64 21.898 134.8 22.058C134.987 22.218 135.08 22.458 135.08 22.778C135.08 23.098 134.92 23.4313 134.6 23.778C134.307 24.098 133.934 24.378 133.48 24.618C133.054 24.8313 132.64 24.938 132.24 24.938C131.947 24.938 131.667 24.7647 131.4 24.418C131.134 24.0447 130.894 23.6047 130.68 23.098C130.494 22.5647 130.32 22.058 130.16 21.578L129.92 20.658L128.2 22.298C127.854 22.6713 127.507 23.018 127.16 23.338C126.84 23.6313 126.64 23.8447 126.56 23.978C126.427 24.218 126.174 24.458 125.8 24.698C125.454 24.938 124.974 25.178 124.36 25.418ZM124.48 23.058C124.934 22.7913 125.454 22.4047 126.04 21.898C126.627 21.3647 127.2 20.7913 127.76 20.178C128.32 19.538 128.787 18.9513 129.16 18.418C129.614 17.8047 129.96 17.2313 130.2 16.698C130.44 16.1647 130.614 15.658 130.72 15.178C130.614 14.8847 130.44 14.578 130.2 14.258C129.96 13.9113 129.747 13.7247 129.56 13.698C128.974 13.698 128.347 14.0713 127.68 14.818C127.04 15.538 126.414 16.3247 125.8 17.178C125.694 17.3113 125.547 17.5247 125.36 17.818C125.174 18.1113 124.987 18.3913 124.8 18.658C124.64 18.898 124.534 19.058 124.48 19.138C124.4 19.2447 124.24 19.5513 124 20.058C123.787 20.538 123.574 21.0313 123.36 21.538C123.147 22.018 123.04 22.338 123.04 22.498C123.04 22.658 123.054 22.8313 123.08 23.018C123.134 23.2047 123.267 23.3247 123.48 23.378C123.694 23.4313 124.027 23.3247 124.48 23.058Z" fill="white"/>
<path d="M111.798 25.538C111.452 25.698 111.052 25.7647 110.598 25.738C110.145 25.7113 109.532 25.5647 108.758 25.298C108.705 25.298 108.585 25.2447 108.398 25.138C108.238 25.0313 108.065 24.898 107.878 24.738C107.718 24.5513 107.585 24.3513 107.478 24.138C107.052 23.5247 106.878 22.618 106.958 21.418C107.038 20.218 107.412 18.778 108.078 17.098C108.265 16.698 108.545 16.1913 108.918 15.578C109.318 14.9647 109.705 14.4047 110.078 13.898C110.478 13.3647 110.758 13.058 110.918 12.978C110.918 12.978 111.065 12.9247 111.358 12.818C111.652 12.7113 112.025 12.538 112.478 12.298C112.612 12.2447 112.758 12.1913 112.918 12.138C113.105 12.0847 113.292 12.0447 113.478 12.018C113.665 11.9913 113.825 11.9913 113.958 12.018C114.492 12.0447 115.038 12.2447 115.598 12.618C116.185 12.9647 116.665 13.378 117.038 13.858C117.412 14.3113 117.532 14.7113 117.398 15.058C117.398 15.1113 117.318 15.218 117.158 15.378C117.025 15.5113 116.865 15.658 116.678 15.818C116.518 15.9513 116.385 16.0847 116.278 16.218C116.145 16.378 115.958 16.4447 115.718 16.418C115.505 16.3913 115.305 16.2847 115.118 16.098C114.958 15.8847 114.865 15.618 114.838 15.298C114.785 15.0847 114.585 14.8847 114.238 14.698C113.918 14.5113 113.758 14.418 113.758 14.418C113.545 14.418 113.238 14.618 112.838 15.018C112.465 15.3913 112.092 15.8447 111.718 16.378C111.238 16.858 110.825 17.4313 110.478 18.098C110.132 18.738 109.852 19.3513 109.638 19.938C109.452 20.498 109.318 20.898 109.238 21.138C109.132 21.4047 109.118 21.778 109.198 22.258C109.278 22.738 109.372 23.0313 109.478 23.138C109.585 23.1913 109.852 23.2047 110.278 23.178C110.732 23.1513 111.265 23.098 111.878 23.018C112.492 22.9113 113.092 22.7913 113.678 22.658C114.265 22.5247 114.745 22.378 115.118 22.218C115.625 21.898 116.065 21.7113 116.438 21.658C116.812 21.6047 117.092 21.6047 117.278 21.658C117.572 21.7647 117.745 21.9113 117.798 22.098C117.852 22.2847 117.785 22.498 117.598 22.738C117.412 22.9513 117.092 23.178 116.638 23.418C116.212 23.6313 115.825 23.8713 115.478 24.138C115.158 24.378 114.998 24.5647 114.998 24.698C114.892 24.698 114.772 24.738 114.638 24.818C114.532 24.8713 114.438 24.8847 114.358 24.858C114.305 24.858 114.092 24.898 113.718 24.978C113.345 25.058 112.958 25.1513 112.558 25.258C112.185 25.3647 111.932 25.458 111.798 25.538Z" fill="white"/>
<path d="M100.794 26.498C100.527 26.2313 100.26 25.8713 99.9938 25.418C99.7271 24.938 99.5138 24.3913 99.3538 23.778C99.3005 23.5647 99.2738 23.2713 99.2738 22.898C99.3004 22.5247 99.3004 22.258 99.2738 22.098C99.1938 22.2847 99.0604 22.4847 98.8738 22.698C98.7138 22.8847 98.5538 23.0447 98.3938 23.178C98.2871 23.2847 98.0471 23.498 97.6738 23.818C97.3004 24.1113 96.9271 24.3513 96.5538 24.538C95.6738 25.098 94.9404 25.4047 94.3538 25.458C93.7938 25.5113 93.2605 25.218 92.7538 24.578C92.3271 24.2313 92.0204 23.8447 91.8338 23.418C91.6738 22.9913 91.6738 22.4047 91.8338 21.658C91.8871 20.7247 92.0204 19.818 92.2338 18.938C92.4471 18.0313 92.8871 16.8313 93.5538 15.338C94.1138 14.2447 94.5404 13.4447 94.8338 12.938C95.1271 12.4047 95.3138 12.0847 95.3938 11.978C95.7938 11.8447 96.1271 11.858 96.3938 12.018C96.6604 12.1513 96.8204 12.4047 96.8738 12.778C97.0338 13.0447 97.0071 13.498 96.7938 14.138C96.6071 14.778 96.2738 15.5647 95.7938 16.498C95.4204 17.4047 95.0738 18.3113 94.7538 19.218C94.4604 20.1247 94.2871 20.898 94.2338 21.538C94.1804 22.178 94.3404 22.5647 94.7138 22.698C94.9538 22.8313 95.3671 22.7913 95.9538 22.578C96.5671 22.3647 97.2471 21.8313 97.9938 20.978C98.7671 20.1247 99.5138 18.8313 100.234 17.098C100.447 16.5647 100.607 16.098 100.714 15.698C100.82 15.2713 100.887 14.8047 100.914 14.298C100.86 13.978 100.874 13.698 100.954 13.458C101.06 13.1913 101.274 12.9647 101.594 12.778C101.7 12.6447 101.847 12.5247 102.034 12.418C102.22 12.2847 102.34 12.2847 102.394 12.418L103.034 12.378C103.14 12.3513 103.207 12.418 103.234 12.578C103.287 12.7113 103.38 12.8313 103.514 12.938C103.807 13.178 103.887 13.698 103.754 14.498C103.62 15.298 103.247 16.418 102.634 17.858C102.127 18.9513 101.78 19.778 101.594 20.338C101.434 20.898 101.34 21.4447 101.314 21.978C101.314 22.458 101.407 22.9113 101.594 23.338C101.78 23.7647 102.074 24.1513 102.474 24.498C102.767 24.6847 102.927 24.898 102.954 25.138C103.007 25.378 103.02 25.658 102.994 25.978C102.94 26.218 102.78 26.418 102.514 26.578C102.274 26.7113 101.994 26.778 101.674 26.778C101.354 26.778 101.06 26.6847 100.794 26.498Z" fill="white"/>
<path d="M85.7707 26.178C85.664 26.178 85.504 26.1647 85.2907 26.138C85.104 26.0847 84.944 25.9647 84.8107 25.778C84.4107 25.298 84.1573 24.898 84.0507 24.578C83.944 24.258 83.9307 23.7913 84.0107 23.178C84.064 22.778 84.0907 22.4313 84.0907 22.138C84.1173 21.818 84.144 21.5513 84.1707 21.338C84.064 21.2313 83.864 21.3113 83.5707 21.578C83.304 21.818 82.9307 22.1247 82.4507 22.498C81.544 23.538 80.7307 24.338 80.0107 24.898C79.3173 25.4313 78.6907 25.7913 78.1307 25.978C77.5707 26.138 77.0373 26.1913 76.5307 26.138C76.0773 26.0847 75.7173 25.898 75.4507 25.578C75.184 25.2313 75.0107 24.7913 74.9307 24.258C74.8773 23.7247 74.8773 23.1513 74.9307 22.538C75.0373 21.658 75.224 20.818 75.4907 20.018C75.784 19.218 76.2507 18.3247 76.8907 17.338C77.184 16.8047 77.5707 16.2847 78.0507 15.778C78.5573 15.2447 79.104 14.778 79.6907 14.378C80.304 13.9513 80.8907 13.6447 81.4507 13.458C82.064 13.218 82.6907 13.0847 83.3307 13.058C83.9707 13.0047 84.544 13.058 85.0507 13.218C85.3707 13.378 85.624 13.458 85.8107 13.458C86.024 13.458 86.184 13.3247 86.2907 13.058C86.424 12.8447 86.5573 12.5247 86.6907 12.098C86.824 11.6447 86.984 11.258 87.1707 10.938L88.0507 8.338C88.344 7.618 88.664 6.858 89.0107 6.058C89.3573 5.258 89.7707 4.28466 90.2507 3.138C90.704 2.28467 91.0773 1.79133 91.3707 1.658C91.664 1.498 91.9973 1.60467 92.3707 1.978C92.664 2.32466 92.7707 2.72466 92.6907 3.178C92.6107 3.60467 92.3707 4.298 91.9707 5.258C91.784 5.55133 91.624 5.83133 91.4907 6.098C91.3573 6.338 91.1707 6.72466 90.9307 7.258C90.584 8.08466 90.264 8.83133 89.9707 9.498C89.6773 10.138 89.3707 10.8713 89.0507 11.698C88.944 12.1247 88.7973 12.618 88.6107 13.178C88.4507 13.738 88.3173 14.2447 88.2107 14.698C88.1307 15.1247 88.0373 15.5247 87.9307 15.898C87.8507 16.2447 87.7573 16.418 87.6507 16.418C87.4373 16.658 87.2373 17.0847 87.0507 17.698C86.864 18.2847 86.704 18.898 86.5707 19.538C86.464 20.178 86.3707 20.7113 86.2907 21.138C86.2373 21.458 86.1973 21.8713 86.1707 22.378C86.144 22.8847 86.1307 23.378 86.1307 23.858C86.1307 24.3113 86.1307 24.6313 86.1307 24.818C86.1307 25.4047 86.1173 25.778 86.0907 25.938C86.064 26.098 85.9573 26.178 85.7707 26.178ZM77.2507 23.658C77.8107 23.658 78.3973 23.418 79.0107 22.938C79.6507 22.458 80.2907 21.9247 80.9307 21.338C81.3307 20.9647 81.7573 20.4713 82.2107 19.858C82.6907 19.2447 83.144 18.6313 83.5707 18.018C84.024 17.4047 84.384 16.8713 84.6507 16.418C84.9173 15.938 85.0507 15.6447 85.0507 15.538C85.0507 15.4047 84.9307 15.3113 84.6907 15.258C84.4507 15.2047 84.1707 15.178 83.8507 15.178C83.5573 15.1513 83.3173 15.1647 83.1307 15.218C82.544 15.3513 81.9573 15.618 81.3707 16.018C80.8107 16.418 80.1973 17.018 79.5307 17.818C78.8373 18.6713 78.264 19.5513 77.8107 20.458C77.384 21.3647 77.1173 22.1247 77.0107 22.738C76.904 23.3513 76.984 23.658 77.2507 23.658Z" fill="white"/>
<path d="M59.5988 27.538C58.7721 27.4847 58.0388 27.2313 57.3988 26.778C56.7854 26.3247 56.1321 25.858 55.4388 25.378C54.9854 24.9247 54.6254 24.4447 54.3588 23.938C54.0921 23.4047 53.8788 22.7113 53.7188 21.858C53.6121 21.3513 53.6121 20.7113 53.7188 19.938C53.8254 19.1647 53.9988 18.3913 54.2388 17.618C54.4788 16.818 54.7054 16.178 54.9188 15.698C55.2388 14.9513 55.6388 14.1513 56.1188 13.298C56.6254 12.418 57.1188 11.5913 57.5988 10.818C58.1054 10.018 58.5054 9.378 58.7988 8.898C58.9854 8.71133 59.0654 8.618 59.0388 8.618C59.0388 8.59133 59.0388 8.578 59.0388 8.578C59.0388 8.44467 59.1721 8.11133 59.4388 7.578C59.7321 7.018 59.9854 6.52467 60.1988 6.098C60.5988 5.67133 60.8254 5.32467 60.8788 5.058C60.9321 4.79133 60.8921 4.578 60.7588 4.418C60.7054 4.31133 60.7988 4.12467 61.0388 3.858C61.2788 3.59133 61.6388 3.28467 62.1188 2.938C62.5988 2.59133 63.1454 2.24467 63.7588 1.898C64.3988 1.39133 65.0121 1.12467 65.5988 1.098C66.2121 1.04467 66.5721 1.16467 66.6788 1.458C66.6788 1.538 66.8254 1.56467 67.1188 1.538C67.4388 1.48467 67.7988 1.418 68.1988 1.338C68.6254 1.23133 68.9988 1.15133 69.3188 1.098C69.4521 0.938001 69.7588 0.818001 70.2388 0.738C70.7454 0.631333 71.3321 0.537999 71.9988 0.457999C72.3454 0.484667 72.6788 0.498001 72.9988 0.498001C73.3454 0.471333 73.6254 0.444666 73.8388 0.417999C74.0788 0.391333 74.1988 0.378 74.1988 0.378C74.3854 0.324667 74.5988 0.351334 74.8388 0.457999C75.1054 0.564666 75.3454 0.857999 75.5588 1.338C75.7454 1.818 75.6788 2.178 75.3588 2.418C75.0654 2.658 74.3721 2.84467 73.2788 2.978C72.4788 3.08467 71.7854 3.178 71.1988 3.258C70.6121 3.31133 69.9988 3.39133 69.3588 3.498C68.7188 3.578 67.9321 3.72467 66.9988 3.938C66.3321 4.07133 65.7854 4.23133 65.3588 4.418C64.9321 4.578 64.5588 4.83133 64.2388 5.178C63.9188 5.498 63.5588 5.96467 63.1588 6.578C62.9721 6.71133 62.7321 7.058 62.4388 7.618C62.1454 8.178 61.8521 8.738 61.5588 9.298C60.8121 10.338 60.1588 11.2447 59.5988 12.018C59.0654 12.7647 58.8521 13.2047 58.9588 13.338C58.9588 13.338 59.1054 13.378 59.3988 13.458C59.6921 13.538 59.8921 13.578 59.9988 13.578C60.2654 13.4447 60.5854 13.3513 60.9588 13.298C61.3588 13.2447 61.6788 13.1913 61.9188 13.138C63.5721 12.7113 64.8654 12.378 65.7988 12.138C66.7588 11.898 67.4788 11.7247 67.9588 11.618C68.4654 11.4847 68.8521 11.4047 69.1188 11.378C69.4921 11.0847 69.8521 11.0313 70.1988 11.218C70.5721 11.4047 70.8654 11.698 71.0788 12.098C71.2121 12.3913 71.2121 12.6447 71.0788 12.858C70.9721 13.0713 70.6388 13.2847 70.0788 13.498C69.5454 13.7113 68.7454 13.9647 67.6788 14.258C66.6121 14.5513 65.2121 14.938 63.4788 15.418C62.0121 15.8447 60.7588 16.098 59.7188 16.178C58.6788 16.258 58.1854 16.0313 58.2388 15.498C58.0521 15.3913 57.8388 15.5247 57.5988 15.898C57.3854 16.2447 57.1721 16.7247 56.9588 17.338C56.7454 17.9513 56.5588 18.6047 56.3988 19.298C56.2654 19.9913 56.1721 20.6447 56.1188 21.258C56.0921 21.8447 56.1321 22.2847 56.2388 22.578C56.4521 23.1913 56.7321 23.6847 57.0788 24.058C57.4254 24.4047 58.0521 24.7113 58.9588 24.978C59.4921 25.0047 60.0121 25.0447 60.5188 25.098C61.0254 25.1513 61.5988 25.0447 62.2388 24.778C63.8121 24.5113 65.0521 24.2313 65.9588 23.938C66.8654 23.6447 67.3854 23.4447 67.5188 23.338C67.7321 23.2313 67.8654 23.178 67.9188 23.178C67.9988 23.1513 68.1054 23.138 68.2388 23.138C68.1588 23.2713 68.1854 23.2847 68.3188 23.178C68.4788 23.0447 68.6921 22.8447 68.9588 22.578C69.2521 22.3113 69.6388 22.058 70.1188 21.818C70.5988 21.578 71.0254 21.3913 71.3988 21.258C71.7988 21.1247 72.0121 21.1247 72.0388 21.258C72.1988 21.5247 72.1721 21.898 71.9588 22.378C71.7454 22.8313 71.3588 23.338 70.7988 23.898C70.2388 24.4313 69.5188 24.9513 68.6388 25.458C67.2254 26.2047 65.6921 26.7247 64.0388 27.018C62.3854 27.338 60.9054 27.5113 59.5988 27.538Z" fill="white"/>
<path d="M30.1985 34.538C29.5585 34.7247 28.8518 34.7513 28.0785 34.618C27.3318 34.5113 26.6785 34.2847 26.1185 33.938C25.5318 33.5913 25.1985 33.2047 25.1185 32.778C25.0918 32.618 25.1451 32.4447 25.2785 32.258C25.3851 32.0713 25.5318 31.938 25.7185 31.858C25.8785 31.8047 26.0251 31.858 26.1584 32.018C26.3718 32.1513 26.7584 32.3113 27.3184 32.498C27.8784 32.7113 28.5051 32.7513 29.1985 32.618C29.8118 32.4847 30.4118 32.1247 30.9984 31.538C31.6118 30.9513 32.1051 30.4047 32.4785 29.898C32.6918 29.578 33.0518 29.0047 33.5585 28.178C34.0651 27.3513 34.5851 26.4447 35.1185 25.458C35.6785 24.4447 36.1451 23.5113 36.5185 22.658C36.5985 22.4447 36.6918 22.1913 36.7985 21.898C36.9051 21.6047 37.0385 21.3647 37.1985 21.178C37.3585 20.858 37.4918 20.5647 37.5985 20.298C37.7318 20.0047 37.8118 19.8047 37.8385 19.698C37.8651 19.5647 37.9851 19.298 38.1985 18.898C38.4118 18.498 38.6118 18.098 38.7985 17.698C38.9318 17.298 39.1318 16.7113 39.3985 15.938C39.6651 15.1647 39.9318 14.538 40.1985 14.058C40.5185 13.4447 40.7718 12.9513 40.9585 12.578C41.1718 12.178 41.3985 11.938 41.6385 11.858C41.8785 11.6713 42.0385 11.578 42.1185 11.578C42.2251 11.578 42.4251 11.658 42.7185 11.818C43.0385 12.138 43.2385 12.458 43.3185 12.778C43.3985 13.0713 43.3584 13.4447 43.1984 13.898C43.0651 14.3247 42.7985 14.9113 42.3985 15.658C42.1851 16.298 41.9451 16.8847 41.6785 17.418C41.4385 17.9247 41.2518 18.258 41.1185 18.418C40.9851 18.738 40.8251 19.098 40.6385 19.498C40.4785 19.8713 40.3318 20.218 40.1985 20.538C39.7185 21.6047 39.3051 22.4713 38.9585 23.138C38.6118 23.8047 38.3051 24.418 38.0385 24.978C37.7718 25.538 37.4918 26.1913 37.1985 26.938C36.5851 27.9247 35.9851 28.858 35.3985 29.738C34.8385 30.6447 34.2385 31.4847 33.5985 32.258C33.3318 32.498 32.9985 32.778 32.5985 33.098C32.1985 33.418 31.7851 33.7113 31.3584 33.978C30.9584 34.2447 30.5718 34.4313 30.1985 34.538ZM35.5985 24.938C35.1985 24.8847 34.7985 24.6447 34.3985 24.218C34.0251 23.7913 33.7318 23.338 33.5185 22.858C33.3051 22.378 33.2251 22.0313 33.2785 21.818C33.2785 21.6847 33.2785 21.578 33.2785 21.498C33.2785 21.418 33.2785 21.378 33.2785 21.378C33.1185 21.378 32.9718 21.178 32.8385 20.778C32.7318 20.378 32.6518 19.858 32.5985 19.218C32.5451 18.578 32.5051 17.898 32.4785 17.178C32.4785 16.458 32.5051 15.778 32.5585 15.138C32.6651 14.6847 32.7185 14.1913 32.7185 13.658C32.7185 13.098 32.7318 12.658 32.7585 12.338C32.7318 11.9113 32.7718 11.6313 32.8785 11.498C32.9851 11.338 33.0918 11.218 33.1985 11.138C33.9451 10.818 34.4385 11.018 34.6785 11.738C34.9451 12.4313 35.0118 13.738 34.8785 15.658C34.8251 16.7247 34.8251 17.7913 34.8785 18.858C34.9318 19.9247 35.0785 20.858 35.3185 21.658C35.5851 22.458 35.9451 23.0047 36.3985 23.298C36.5851 23.4047 36.6785 23.5513 36.6785 23.738C36.6785 23.9247 36.6251 24.1247 36.5185 24.338C36.4118 24.5247 36.2651 24.6847 36.0785 24.818C35.9185 24.9247 35.7585 24.9647 35.5985 24.938Z" fill="white"/>
<path d="M25.08 28.498C25.0533 28.658 24.8933 28.698 24.6 28.618C24.3333 28.5647 24.0933 28.378 23.88 28.058C23.6667 27.5513 23.56 27.0847 23.56 26.658C23.56 26.2313 23.5733 25.5913 23.6 24.738C23.76 23.8047 23.9733 22.5913 24.24 21.098C24.5333 19.578 24.8667 17.8847 25.24 16.018C25.64 14.1247 26.0667 12.1513 26.52 10.098C26.84 9.03133 27.0933 8.058 27.28 7.178C27.4933 6.27133 27.6533 5.538 27.76 4.978C27.8667 4.418 27.92 4.138 27.92 4.138C27.92 4.058 27.84 4.098 27.68 4.258C27.5467 4.39133 27.4133 4.55133 27.28 4.738C27.1467 4.92467 27.0933 5.07133 27.12 5.178C27.12 5.178 27.0267 5.31133 26.84 5.578C26.6533 5.84467 26.4133 6.20467 26.12 6.658C25.8533 6.92467 25.5333 7.458 25.16 8.258C24.7867 9.058 24.3733 9.80467 23.92 10.498C23.4933 11.298 23.04 12.1647 22.56 13.098C22.08 14.0047 21.6533 14.7647 21.28 15.378C21.04 15.7247 20.8 16.1247 20.56 16.578C20.32 17.0313 20.1733 17.3247 20.12 17.458C20.0133 17.7513 19.8267 18.1113 19.56 18.538C19.2933 18.938 19 19.338 18.68 19.738C18.52 19.978 18.36 20.2313 18.2 20.498C18.04 20.738 17.9067 20.9513 17.8 21.138C17.72 21.298 17.68 21.378 17.68 21.378C17.68 21.458 17.5467 21.698 17.28 22.098C17.04 22.498 16.7333 22.938 16.36 23.418C16.0133 23.898 15.68 24.3113 15.36 24.658C14.4267 25.6447 13.68 26.2313 13.12 26.418C12.56 26.578 11.9333 26.338 11.24 25.698C10.8933 25.2713 10.64 24.7913 10.48 24.258C10.32 23.698 10.2533 23.018 10.28 22.218C10.3067 21.3913 10.4 20.3647 10.56 19.138C10.7467 18.2047 10.92 17.2713 11.08 16.338C11.24 15.378 11.3867 14.4847 11.52 13.658C11.68 12.8047 11.8133 12.0847 11.92 11.498C12.0533 10.9113 12.16 10.5247 12.24 10.338C12.2933 9.80467 12.28 9.51133 12.2 9.458C12.12 9.40467 11.96 9.56467 11.72 9.938C11.6133 10.1247 11.3333 10.5913 10.88 11.338C10.4267 12.058 9.89333 12.9513 9.28 14.018C8.69333 15.0847 8.10667 16.2447 7.52 17.498C6.42667 19.5247 5.52 21.2047 4.8 22.538C4.10667 23.8447 3.54667 24.8847 3.12 25.658C2.72 26.4313 2.42667 27.0047 2.24 27.378C2.05333 27.7513 1.92 28.0047 1.84 28.138C1.76 28.2713 1.69333 28.3647 1.64 28.418C1.4 28.418 1.14667 28.3113 0.88 28.098C0.64 27.9113 0.386667 27.6847 0.12 27.418C0.0399999 27.2313 0 27.0447 0 26.858C0.0266666 26.6713 0.12 26.4047 0.28 26.058C0.44 25.6847 0.68 25.1247 1 24.378C1.34667 23.6847 1.66667 23.0847 1.96 22.578C2.25333 22.0447 2.48 21.7247 2.64 21.618C2.77333 21.4047 2.89333 21.1913 3 20.978C3.10667 20.7647 3.17333 20.5113 3.2 20.218C3.33333 20.058 3.53333 19.738 3.8 19.258C4.09333 18.7513 4.38667 18.2047 4.68 17.618C4.89333 17.2713 5.16 16.818 5.48 16.258C5.82667 15.698 6.18667 15.0847 6.56 14.418C6.93333 13.7247 7.26667 13.0713 7.56 12.458C8.78667 10.3513 9.82667 8.578 10.68 7.138C11.5333 5.67133 12.1733 4.738 12.6 4.338C12.7333 4.20467 12.8667 4.018 13 3.778C13.16 3.538 13.24 3.32467 13.24 3.138C13.24 2.578 13.3467 2.07133 13.56 1.618C13.8 1.138 14.04 0.924667 14.28 0.978C14.5467 0.978 14.7867 1.00467 15 1.058C15.2133 1.11133 15.44 1.28467 15.68 1.578C15.8933 1.898 16.08 2.218 16.24 2.538C16.4 2.858 16.3867 3.498 16.2 4.458C16.2 4.83133 16.16 5.258 16.08 5.738C16 6.19133 15.92 6.618 15.84 7.018C15.7867 7.39133 15.7467 7.68467 15.72 7.898C15.3733 8.938 15.0533 10.1113 14.76 11.418C14.4667 12.698 14.2 14.0047 13.96 15.338C13.72 16.6447 13.52 17.8713 13.36 19.018C13.2 20.138 13.0933 21.0713 13.04 21.818C13.0133 22.538 13.04 22.9513 13.12 23.058C13.3067 23.1647 13.4667 23.178 13.6 23.098C13.7333 23.018 13.96 22.6713 14.28 22.058C14.4667 21.738 14.72 21.3513 15.04 20.898C15.3867 20.418 15.72 19.978 16.04 19.578C16.2533 19.2047 16.5867 18.6447 17.04 17.898C17.4933 17.1513 18.0667 16.1913 18.76 15.018C19.48 13.8447 20.3333 12.418 21.32 10.738C22.3333 9.03134 23.48 7.058 24.76 4.818C25.3733 3.88467 25.9467 2.978 26.48 2.098C27.04 1.19133 27.4933 0.604667 27.84 0.338001C28.2133 -0.00866604 28.6 -0.0886666 29 0.0979992C29.4 0.258 29.7467 0.604667 30.04 1.138C30.36 1.67133 30.5333 2.338 30.56 3.138C30.5867 3.51133 30.5333 4.11133 30.4 4.938C30.2933 5.76467 30.12 6.71133 29.88 7.778C29.64 8.818 29.3333 9.898 28.96 11.018C28.88 11.4713 28.7467 12.0447 28.56 12.738C28.4 13.4047 28.2133 14.098 28 14.818C27.7867 15.538 27.5733 16.218 27.36 16.858C27.2267 17.738 27.0667 18.6047 26.88 19.458C26.72 20.3113 26.6667 20.8847 26.72 21.178C26.48 21.6047 26.32 22.218 26.24 23.018C26.16 23.818 26.12 24.6447 26.12 25.498C26.0133 26.538 25.9333 27.2713 25.88 27.698C25.8267 28.1247 25.7333 28.3247 25.6 28.298C25.2533 28.1913 25.08 28.258 25.08 28.498Z" fill="white"/>
</svg>
