<svg width="145" height="38" viewBox="0 0 145 38" fill="none" xmlns="http://www.w3.org/2000/svg">
<path d="M132.039 36.92C131.452 37.0267 131.052 37.04 130.839 36.96C130.626 36.88 130.332 36.7467 129.959 36.56C129.666 36.3467 129.439 36.1867 129.279 36.08C129.119 35.9733 129.039 35.8667 129.039 35.76C129.039 35.68 129.066 35.5867 129.119 35.48C129.172 35.4 129.266 35.32 129.399 35.24C129.559 35.1867 129.772 35.16 130.039 35.16C130.226 35.2667 130.532 35.32 130.959 35.32C131.412 35.32 131.692 35.2667 131.799 35.16C131.799 35.16 131.919 35.08 132.159 34.92C132.426 34.7867 132.772 34.68 133.199 34.6C134.026 34.2 134.759 33.6933 135.399 33.08C136.039 32.4667 136.652 31.6667 137.239 30.68C137.479 30.3067 137.732 29.8667 137.999 29.36C138.266 28.88 138.452 28.4 138.559 27.92C138.772 27.3867 139.012 26.6667 139.279 25.76C139.572 24.8533 139.826 23.96 140.039 23.08C140.252 22.1733 140.372 21.4933 140.399 21.04C140.559 19.5467 140.812 18.1733 141.159 16.92C141.532 15.64 141.852 14.2133 142.119 12.64C142.279 12.2667 142.399 12.0533 142.479 12C142.559 11.92 142.732 11.88 142.999 11.88C143.292 11.88 143.506 11.9067 143.639 11.96C143.799 11.9867 143.972 12.1467 144.159 12.44C144.426 12.9467 144.519 13.5467 144.439 14.24C144.386 14.9067 144.186 15.4933 143.839 16C143.572 16.3733 143.332 16.96 143.119 17.76C142.932 18.5333 142.746 19.5067 142.559 20.68C142.426 21.2667 142.279 21.96 142.119 22.76C141.986 23.5333 141.839 24.4 141.679 25.36C141.572 25.6267 141.426 26.04 141.239 26.6C141.052 27.1333 140.932 27.56 140.879 27.88C140.852 27.9867 140.772 28.2 140.639 28.52C140.506 28.84 140.372 29.1467 140.239 29.44C140.106 29.76 140.012 29.9733 139.959 30.08C138.919 32.24 137.732 33.8933 136.399 35.04C135.066 36.1867 133.612 36.8133 132.039 36.92ZM135.079 25.32C134.786 25.32 134.479 25.16 134.159 24.84C133.866 24.52 133.666 24.2667 133.559 24.08C133.452 23.8133 133.319 23.56 133.159 23.32C132.999 23.08 132.879 22.7867 132.799 22.44C132.746 22.0933 132.772 21.6667 132.879 21.16C132.986 20.8133 133.132 20.32 133.319 19.68C133.532 19.0133 133.759 18.2933 133.999 17.52C134.266 16.7467 134.532 15.9867 134.799 15.24C135.092 14.4667 135.359 13.7867 135.599 13.2C135.839 12.5867 136.052 12.1467 136.239 11.88C136.399 11.6667 136.572 11.5333 136.759 11.48C136.972 11.4267 137.186 11.4533 137.399 11.56C137.612 11.64 137.799 11.8133 137.959 12.08C138.252 12.4533 138.372 12.7733 138.319 13.04C138.266 13.3067 138.026 13.8267 137.599 14.6C137.492 14.8933 137.359 15.2133 137.199 15.56C137.039 15.88 136.959 16.0933 136.959 16.2C136.932 16.2533 136.879 16.44 136.799 16.76C136.746 17.0533 136.679 17.3333 136.599 17.6C136.519 17.8667 136.439 18 136.359 18C136.252 18.1067 136.132 18.4133 135.999 18.92C135.866 19.4 135.746 19.9467 135.639 20.56C135.532 21.1467 135.466 21.6667 135.439 22.12C135.412 22.5467 135.452 22.76 135.559 22.76C136.386 22.76 137.239 22.44 138.119 21.8C139.026 21.16 139.932 20.2267 140.839 19L141.519 21.84C141.146 22.0267 140.799 22.2267 140.479 22.44C140.159 22.6267 139.866 22.8533 139.599 23.12C139.519 23.2267 139.332 23.3733 139.039 23.56C138.746 23.7467 138.452 23.92 138.159 24.08C137.892 24.2133 137.719 24.28 137.639 24.28C137.639 24.28 137.599 24.2933 137.519 24.32C137.466 24.32 137.439 24.3733 137.439 24.48C137.439 24.5333 137.266 24.64 136.919 24.8C136.572 24.9333 136.212 25.0533 135.839 25.16C135.466 25.2667 135.212 25.32 135.079 25.32Z" fill="white"/>
<path d="M119.025 25.88C118.785 25.6933 118.612 25.5067 118.505 25.32C118.425 25.1333 118.425 24.7733 118.505 24.24C118.585 23.4933 118.692 22.84 118.825 22.28C118.958 21.6933 119.118 21.0267 119.305 20.28C119.358 19.96 119.505 19.4133 119.745 18.64C120.012 17.8667 120.332 17.0267 120.705 16.12C121.078 15.2133 121.452 14.36 121.825 13.56C122.198 12.7333 122.518 12.12 122.785 11.72C122.998 11.56 123.252 11.4933 123.545 11.52C123.865 11.5467 124.132 11.6667 124.345 11.88C124.638 12.12 124.678 12.5467 124.465 13.16C124.278 13.7467 123.878 14.68 123.265 15.96C122.945 16.68 122.705 17.2267 122.545 17.6C122.385 17.9467 122.318 18.16 122.345 18.24C122.372 18.2933 122.492 18.2533 122.705 18.12C122.865 17.8267 123.158 17.4933 123.585 17.12C124.012 16.72 124.465 16.3333 124.945 15.96C125.425 15.5867 125.878 15.2533 126.305 14.96C126.732 14.6667 127.025 14.48 127.185 14.4C127.398 14.2667 127.638 14.16 127.905 14.08C128.198 13.9733 128.398 13.8933 128.505 13.84C129.118 13.5467 129.745 13.44 130.385 13.52C131.025 13.6 131.425 13.84 131.585 14.24C131.612 14.4533 131.692 14.6133 131.825 14.72C131.985 14.8267 132.065 14.88 132.065 14.88C132.172 14.88 132.225 14.92 132.225 15C132.252 15.08 132.265 15.12 132.265 15.12C132.265 15.3067 132.118 15.4267 131.825 15.48C131.558 15.5067 131.212 15.5333 130.785 15.56C130.438 15.5867 130.132 15.6533 129.865 15.76C129.598 15.8667 129.278 16 128.905 16.16C127.892 16.7467 126.918 17.32 125.985 17.88C125.078 18.44 124.198 19.1867 123.345 20.12C123.158 20.3333 122.972 20.5867 122.785 20.88C122.598 21.1733 122.398 21.4933 122.185 21.84C122.052 21.9733 121.918 22.2667 121.785 22.72C121.652 23.1733 121.532 23.6133 121.425 24.04C121.345 24.44 121.305 24.68 121.305 24.76C121.305 24.76 121.265 24.8933 121.185 25.16C121.105 25.4 120.972 25.64 120.785 25.88C120.465 26.3067 120.198 26.52 119.985 26.52C119.772 26.52 119.452 26.3067 119.025 25.88Z" fill="white"/>
<path d="M109.097 27.4C107.924 27.4 106.964 26.96 106.217 26.08C105.471 25.1733 105.111 24.0533 105.137 22.72C105.191 21.76 105.377 20.7333 105.697 19.64C106.044 18.52 106.497 17.4533 107.057 16.44C107.617 15.4 108.231 14.4933 108.897 13.72C109.564 12.9467 110.257 12.4 110.977 12.08C111.244 11.9467 111.524 11.84 111.817 11.76C112.137 11.68 112.457 11.64 112.777 11.64C113.071 11.64 113.377 11.6933 113.697 11.8C114.017 11.88 114.284 11.9733 114.497 12.08C114.951 12.2667 115.297 12.4933 115.537 12.76C115.777 13.0267 115.991 13.44 116.177 14C116.257 14.5067 116.297 14.8667 116.297 15.08C116.297 15.2933 116.231 15.6133 116.097 16.04C115.777 17 115.364 17.8267 114.857 18.52C114.351 19.2133 113.671 19.8 112.817 20.28C112.604 20.4133 112.351 20.52 112.057 20.6C111.791 20.6533 111.511 20.68 111.217 20.68C110.684 20.68 110.164 20.5867 109.657 20.4C109.177 20.1867 108.791 19.88 108.497 19.48L108.217 19.16L108.097 19.48C107.831 20.2 107.617 20.8667 107.457 21.48C107.324 22.0933 107.257 22.6533 107.257 23.16C107.257 23.48 107.284 23.7867 107.337 24.08C107.417 24.3733 107.524 24.6267 107.657 24.84C107.764 25 107.937 25.12 108.177 25.2C108.444 25.2533 108.724 25.28 109.017 25.28C109.204 25.28 109.391 25.28 109.577 25.28C109.791 25.2533 109.991 25.2 110.177 25.12C110.631 24.96 110.991 24.7867 111.257 24.6C111.551 24.4133 111.844 24.2133 112.137 24L112.297 23.92H112.257C112.577 23.76 112.857 23.6 113.097 23.44C113.364 23.28 113.497 23.2 113.497 23.2C113.604 23.2 113.711 23.1333 113.817 23C114.031 22.8933 114.297 22.9333 114.617 23.12C114.964 23.3067 115.137 23.5467 115.137 23.84C115.111 23.9733 114.991 24.1867 114.777 24.48C114.564 24.7467 114.324 25 114.057 25.24C113.817 25.48 113.617 25.6133 113.457 25.64C113.431 25.6667 113.337 25.72 113.177 25.8C113.017 25.8533 112.911 25.9067 112.857 25.96H112.897C112.657 26.28 112.417 26.44 112.177 26.44H111.857C111.751 26.6267 111.404 26.84 110.817 27.08C110.231 27.2933 109.657 27.4 109.097 27.4ZM110.897 18.6C111.377 18.6 111.791 18.4667 112.137 18.2C112.511 17.9067 112.831 17.5867 113.097 17.24C113.631 16.52 113.937 15.8267 114.017 15.16C114.124 14.4667 114.044 13.9867 113.777 13.72C113.617 13.64 113.471 13.6 113.337 13.6C113.231 13.5733 113.004 13.6133 112.657 13.72C112.417 13.7733 112.084 13.9733 111.657 14.32C111.231 14.6667 110.804 15.0533 110.377 15.48C109.977 15.9067 109.671 16.2667 109.457 16.56L108.937 17.4C109.151 17.32 109.351 17.28 109.537 17.28C109.751 17.2533 109.871 17.2667 109.897 17.32C109.897 17.56 109.937 17.7867 110.017 18C110.124 18.1867 110.244 18.3333 110.377 18.44C110.537 18.5467 110.711 18.6 110.897 18.6Z" fill="white"/>
<path d="M98.5394 27.64C98.1927 27.5067 97.9394 27.3067 97.7794 27.04C97.6194 26.7467 97.5261 26.3333 97.4994 25.8C97.4994 25.48 97.5527 25.0533 97.6594 24.52C97.7661 23.9867 97.8861 23.3733 98.0194 22.68C98.0194 22.6267 98.0194 22.5733 98.0194 22.52C98.0461 22.44 98.0594 22.3867 98.0594 22.36C98.0861 22.2533 98.1127 22.0933 98.1394 21.88C98.1927 21.6667 98.2327 21.5067 98.2594 21.4C98.2861 21.2667 98.2994 21.2667 98.2994 21.4L98.5794 20.32C98.7127 19.84 98.8461 19.36 98.9794 18.88C99.1127 18.4 99.2327 17.9867 99.3394 17.64C99.4461 17.2667 99.5127 17.0533 99.5394 17C99.5394 17 99.5927 16.8533 99.6994 16.56C99.8061 16.24 99.9127 15.9333 100.019 15.64C100.473 14.3867 100.886 13.3333 101.259 12.48C101.633 11.6 101.966 10.96 102.259 10.56C102.286 10.48 102.326 10.3867 102.379 10.28C102.433 10.1467 102.473 10.04 102.499 9.96001C102.526 9.74668 102.553 9.58668 102.579 9.48001C102.633 9.34668 102.699 9.22668 102.779 9.12001C102.833 9.01334 102.913 8.88001 103.019 8.72001C103.126 8.53335 103.246 8.30668 103.379 8.04001L103.539 7.60001C103.699 7.25335 103.899 6.86668 104.139 6.44001C104.379 6.01335 104.553 5.70668 104.659 5.52001C104.766 5.28001 104.926 5.00001 105.139 4.68001C105.353 4.33334 105.513 4.10668 105.619 4.00001L105.579 3.96001C105.713 3.72001 105.873 3.58668 106.059 3.56001C106.273 3.50668 106.499 3.48001 106.739 3.48001C107.113 3.48001 107.326 3.53334 107.379 3.64001C107.433 3.74668 107.459 3.98668 107.459 4.36001C107.459 4.76001 107.446 5.05334 107.419 5.24001C107.419 5.40001 107.313 5.58668 107.099 5.80001H107.139C107.193 5.74668 107.179 5.81334 107.099 6.00001C107.019 6.16001 106.953 6.28001 106.899 6.36001C106.846 6.49335 106.779 6.64001 106.699 6.80001C106.646 6.96001 106.579 7.08001 106.499 7.16001C106.419 7.26668 106.219 7.62668 105.899 8.24001C105.606 8.82668 105.259 9.52001 104.859 10.32C104.486 11.12 104.126 11.8933 103.779 12.64C103.433 13.3867 103.179 13.96 103.019 14.36L102.819 14.96C102.766 15.0667 102.739 15.1467 102.739 15.2C102.659 15.3867 102.579 15.5733 102.499 15.76C102.419 15.9467 102.339 16.1067 102.259 16.24L101.579 18.56L101.379 19.4L101.019 20.28L100.779 21.04C100.726 21.2 100.686 21.3467 100.659 21.48C100.633 21.6133 100.579 21.72 100.499 21.8C100.499 21.8267 100.486 21.8667 100.459 21.92C100.459 21.9467 100.459 21.9733 100.459 22C100.353 22.4267 100.233 23.0267 100.099 23.8C99.9661 24.5733 99.8727 25.3867 99.8194 26.24C99.8194 26.2667 99.8061 26.2933 99.7794 26.32C99.7794 26.3467 99.7794 26.3733 99.7794 26.4C99.6994 26.96 99.5661 27.3333 99.3794 27.52C99.1927 27.7067 98.9127 27.7467 98.5394 27.64Z" fill="white"/>
<path d="M92.3816 25.4C92.1149 25.24 91.9149 25.08 91.7816 24.92C91.6482 24.76 91.5816 24.5333 91.5816 24.24C91.5816 23.84 91.6349 23.4267 91.7416 23C91.8482 22.5467 91.9549 22.1067 92.0616 21.68C92.1149 21.2 92.1816 20.72 92.2616 20.24C92.3682 19.7333 92.5549 19.2667 92.8216 18.84C93.1149 17.8267 93.4216 16.8267 93.7416 15.84C94.0616 14.8267 94.3416 13.7867 94.5816 12.72C94.9282 11.7333 95.2349 10.8667 95.5016 10.12C95.7949 9.34666 96.1549 8.37332 96.5816 7.19999C96.8216 6.53332 97.0216 5.82666 97.1816 5.07999C97.3682 4.30666 97.6482 3.61332 98.0216 2.99999C98.1816 2.75999 98.3016 2.55999 98.3816 2.39999C98.4882 2.21332 98.5949 2.03999 98.7016 1.87999C98.7282 1.77332 98.8082 1.70666 98.9416 1.67999C99.1016 1.65332 99.2749 1.66666 99.4616 1.71999C99.6482 1.77332 99.7949 1.86666 99.9016 1.99999C99.9816 1.97332 100.075 2.05332 100.182 2.23999C100.315 2.39999 100.435 2.58666 100.542 2.79999C100.648 3.01332 100.688 3.19999 100.662 3.35999C100.662 3.46666 100.635 3.61332 100.582 3.79999C100.555 3.98666 100.488 4.15999 100.382 4.31999C100.275 4.42666 100.168 4.58666 100.062 4.79999C99.9816 4.98666 99.8482 5.25332 99.6616 5.59999C99.5549 5.94666 99.4616 6.30666 99.3816 6.67999C99.3016 7.02666 99.1949 7.34666 99.0616 7.63999C98.9549 7.95999 98.8216 8.26666 98.6616 8.55999C98.5282 8.85332 98.4349 9.09332 98.3816 9.27999C98.1949 9.89332 97.9682 10.4933 97.7016 11.08C97.4616 11.6667 97.2482 12.2933 97.0616 12.96C96.8749 13.6 96.6882 14.2667 96.5016 14.96C96.3149 15.6267 96.0482 16.2667 95.7016 16.88C95.5149 17.1733 95.3816 17.5467 95.3016 18C95.2216 18.4533 95.1416 18.9067 95.0616 19.36C94.9016 19.84 94.7549 20.2933 94.6216 20.72C94.5149 21.12 94.4616 21.3733 94.4616 21.48C94.3016 22.0667 94.1816 22.6533 94.1016 23.24C94.0482 23.8 93.9149 24.2933 93.7016 24.72C93.6749 24.9867 93.6216 25.2 93.5416 25.36C93.4616 25.52 93.3282 25.6133 93.1416 25.64C92.9549 25.64 92.7016 25.56 92.3816 25.4Z" fill="white"/>
<path d="M74.5606 25.84C74.454 25.6267 74.3206 25.4667 74.1606 25.36C74.0006 25.2267 73.9206 25.1067 73.9206 25C73.9206 24.8933 73.9073 24.7867 73.8806 24.68C73.8806 24.5467 73.8273 24.4267 73.7206 24.32C73.5873 24.16 73.6006 23.8 73.7606 23.24C73.9206 22.6533 74.1873 21.9467 74.5606 21.12C74.934 20.2667 75.374 19.3733 75.8806 18.44C76.094 18.2267 76.3073 17.9467 76.5206 17.6C76.734 17.2533 76.894 17.0267 77.0006 16.92C77.0006 16.8133 77.0406 16.72 77.1206 16.64C77.2006 16.5333 77.294 16.48 77.4006 16.48V16.24C77.4006 16.1067 77.5206 15.88 77.7606 15.56C78.0273 15.24 78.3473 14.8933 78.7206 14.52C79.094 14.12 79.4806 13.7467 79.8806 13.4C80.2806 13.0267 80.614 12.76 80.8806 12.6C81.4406 12.2267 82.014 12 82.6006 11.92C83.214 11.84 83.734 11.9733 84.1606 12.32C84.2406 12.4 84.374 12.5333 84.5606 12.72C84.7473 12.9067 84.9606 13.12 85.2006 13.36C85.4673 13.5733 85.734 13.8 86.0006 14.04L87.4806 15.36L86.7606 17.36C86.414 18.4267 86.3206 19.36 86.4806 20.16C86.6673 20.96 86.934 21.6533 87.2806 22.24C87.414 22.5333 87.6806 22.8133 88.0806 23.08C88.5073 23.3467 88.9073 23.5067 89.2806 23.56C89.494 23.5867 89.694 23.6667 89.8806 23.8C90.0673 23.9333 90.1606 24.1467 90.1606 24.44C90.1606 24.7067 90.1073 24.92 90.0006 25.08C89.894 25.24 89.7073 25.3467 89.4406 25.4C88.5606 25.5067 87.734 25.2933 86.9606 24.76C86.214 24.2267 85.5206 23.3467 84.8806 22.12C84.774 21.96 84.6273 21.6667 84.4406 21.24C84.2806 20.7867 84.1873 20.4933 84.1606 20.36C84.054 20.4933 83.854 20.7467 83.5606 21.12C83.2673 21.4667 83.0406 21.72 82.8806 21.88C80.9873 23.8 79.3473 25.0933 77.9606 25.76C76.6006 26.4 75.4673 26.4267 74.5606 25.84ZM76.0006 23.6C76.0006 23.7867 76.2806 23.7867 76.8406 23.6C77.4273 23.3867 78.054 23.0133 78.7206 22.48C79.6273 21.7067 80.534 20.8533 81.4406 19.92C82.374 18.9867 83.1206 18.12 83.6806 17.32L84.5606 15.88C84.294 15.2667 84.0006 14.8533 83.6806 14.64C83.3873 14.4 83.134 14.28 82.9206 14.28C82.574 14.28 82.054 14.6 81.3606 15.24C80.694 15.88 79.974 16.7333 79.2006 17.8C78.4273 18.8667 77.694 20.04 77.0006 21.32C76.734 21.8533 76.494 22.3733 76.2806 22.88C76.094 23.36 76.0006 23.6 76.0006 23.6Z" fill="white"/>
<path d="M57.9988 28.76C57.5188 28.4667 57.0921 28.08 56.7188 27.6C56.3721 27.1467 56.0921 26.64 55.8788 26.08C55.6921 25.4933 55.5988 24.92 55.5988 24.36C55.5188 22.7067 55.5988 21.04 55.8388 19.36C56.0788 17.6533 56.4388 15.9867 56.9188 14.36C57.2121 13.3733 57.5454 12.36 57.9188 11.32C58.3188 10.28 58.7188 9.30667 59.1188 8.4C59.5188 7.49333 59.8654 6.76 60.1588 6.2C60.9321 4.78667 61.7588 3.62667 62.6388 2.72C63.5188 1.78667 64.1854 1.18667 64.6388 0.92C64.9054 0.76 65.2788 0.600001 65.7588 0.440001C66.2654 0.253334 66.8254 0.12 67.4388 0.0399992C68.0788 -0.0399997 68.7321 5.21541e-07 69.3988 0.16C70.0921 0.293333 70.7454 0.493333 71.3588 0.76C71.9721 1 72.3854 1.21333 72.5988 1.4C72.8121 1.69333 72.9988 1.96 73.1588 2.2C73.3454 2.41333 73.4521 2.68 73.4788 3C73.5054 3.21333 73.4388 3.48 73.2788 3.8C73.1188 4.12 72.9054 4.34667 72.6388 4.48C72.3988 4.61333 72.1588 4.54667 71.9188 4.28C71.5454 3.74667 71.1721 3.4 70.7988 3.24C70.4254 3.05333 70.0254 2.85333 69.5988 2.64C69.3054 2.48 68.8921 2.4 68.3588 2.4C67.8521 2.4 67.3321 2.48 66.7988 2.64C66.2654 2.77333 65.8121 3.01333 65.4388 3.36C65.1721 3.6 64.8254 3.97333 64.3988 4.48C63.9988 4.96 63.5988 5.49333 63.1988 6.08C62.7988 6.64 62.4788 7.18667 62.2388 7.72C61.5721 9 60.9721 10.2933 60.4388 11.6C59.9054 12.88 59.4654 14.2667 59.1188 15.76C59.0388 16.1333 58.9188 16.68 58.7588 17.4C58.5988 18.12 58.4521 18.8533 58.3188 19.6C58.2121 20.32 58.1321 20.9067 58.0788 21.36C57.9188 22.6667 57.8921 23.8133 57.9988 24.8C58.1054 25.7867 58.4654 26.4533 59.0788 26.8C59.7188 27.1467 60.7321 27.0533 62.1188 26.52C62.7321 26.4133 63.3854 26.1333 64.0788 25.68C64.7721 25.2 65.4388 24.6133 66.0788 23.92C66.7454 23.2 67.3054 22.44 67.7588 21.64C68.1854 20.76 68.5588 19.9067 68.8788 19.08C69.2254 18.2533 69.3988 17.5733 69.3988 17.04C69.3988 16.5067 69.1321 16.2533 68.5988 16.28C67.6121 16.2267 66.8121 16.2267 66.1988 16.28C65.6121 16.3333 65.0654 16.2667 64.5588 16.08C64.3721 15.7867 64.2788 15.4933 64.2788 15.2C64.3054 14.9067 64.4654 14.6133 64.7588 14.32C65.0254 14.1867 65.5054 14.0933 66.1988 14.04C66.8921 13.96 67.6388 13.9467 68.4388 14C69.2654 14.0533 69.9854 14.2267 70.5988 14.52C71.2921 14.8133 71.6921 15.3333 71.7988 16.08C71.9321 16.8267 71.9321 17.6267 71.7988 18.48C71.6921 19.0667 71.4254 19.7733 70.9988 20.6C70.5988 21.4267 70.1188 22.3067 69.5588 23.24C69.1588 23.8267 68.6121 24.4667 67.9188 25.16C67.2254 25.8267 66.5188 26.44 65.7988 27C65.1054 27.56 64.5188 27.9467 64.0388 28.16C62.9721 28.6667 61.8788 29.0133 60.7588 29.2C59.6654 29.4133 58.7454 29.2667 57.9988 28.76Z" fill="white"/>
<path d="M30.1985 35.24C29.5585 35.4266 28.8518 35.4533 28.0785 35.32C27.3318 35.2133 26.6785 34.9867 26.1185 34.64C25.5318 34.2933 25.1985 33.9067 25.1185 33.48C25.0918 33.32 25.1451 33.1467 25.2785 32.96C25.3851 32.7733 25.5318 32.64 25.7185 32.56C25.8785 32.5066 26.0251 32.56 26.1585 32.72C26.3718 32.8533 26.7585 33.0133 27.3185 33.2C27.8785 33.4133 28.5051 33.4533 29.1985 33.32C29.8118 33.1867 30.4118 32.8266 30.9985 32.24C31.6118 31.6533 32.1051 31.1066 32.4785 30.6C32.6918 30.28 33.0518 29.7066 33.5585 28.88C34.0651 28.0533 34.5851 27.1467 35.1185 26.16C35.6785 25.1467 36.1451 24.2133 36.5185 23.36C36.5985 23.1467 36.6918 22.8933 36.7985 22.6C36.9051 22.3067 37.0385 22.0667 37.1985 21.88C37.3585 21.56 37.4918 21.2667 37.5985 21C37.7318 20.7067 37.8118 20.5067 37.8385 20.4C37.8651 20.2667 37.9851 20 38.1985 19.6C38.4118 19.2 38.6118 18.8 38.7985 18.4C38.9318 18 39.1318 17.4133 39.3985 16.64C39.6651 15.8667 39.9318 15.24 40.1985 14.76C40.5185 14.1467 40.7718 13.6533 40.9585 13.28C41.1718 12.88 41.3985 12.64 41.6385 12.56C41.8785 12.3733 42.0385 12.28 42.1185 12.28C42.2251 12.28 42.4251 12.36 42.7185 12.52C43.0385 12.84 43.2385 13.16 43.3185 13.48C43.3985 13.7733 43.3585 14.1467 43.1985 14.6C43.0651 15.0267 42.7985 15.6133 42.3985 16.36C42.1851 17 41.9451 17.5867 41.6785 18.12C41.4385 18.6267 41.2518 18.96 41.1185 19.12C40.9851 19.44 40.8251 19.8 40.6385 20.2C40.4785 20.5733 40.3318 20.92 40.1985 21.24C39.7185 22.3067 39.3051 23.1733 38.9585 23.84C38.6118 24.5067 38.3051 25.12 38.0385 25.68C37.7718 26.24 37.4918 26.8933 37.1985 27.64C36.5851 28.6267 35.9851 29.56 35.3985 30.44C34.8385 31.3467 34.2385 32.1867 33.5985 32.96C33.3318 33.2 32.9985 33.48 32.5985 33.8C32.1985 34.12 31.7851 34.4133 31.3585 34.68C30.9585 34.9467 30.5718 35.1333 30.1985 35.24ZM35.5985 25.64C35.1985 25.5867 34.7985 25.3467 34.3985 24.92C34.0251 24.4933 33.7318 24.04 33.5185 23.56C33.3051 23.08 33.2251 22.7333 33.2785 22.52C33.2785 22.3867 33.2785 22.28 33.2785 22.2C33.2785 22.12 33.2785 22.08 33.2785 22.08C33.1185 22.08 32.9718 21.88 32.8385 21.48C32.7318 21.08 32.6518 20.56 32.5985 19.92C32.5451 19.28 32.5051 18.6 32.4785 17.88C32.4785 17.16 32.5051 16.48 32.5585 15.84C32.6651 15.3867 32.7185 14.8933 32.7185 14.36C32.7185 13.8 32.7318 13.36 32.7585 13.04C32.7318 12.6133 32.7718 12.3333 32.8785 12.2C32.9851 12.04 33.0918 11.92 33.1985 11.84C33.9451 11.52 34.4385 11.72 34.6785 12.44C34.9451 13.1333 35.0118 14.44 34.8785 16.36C34.8251 17.4267 34.8251 18.4933 34.8785 19.56C34.9318 20.6267 35.0785 21.56 35.3185 22.36C35.5851 23.16 35.9451 23.7067 36.3985 24C36.5851 24.1067 36.6785 24.2533 36.6785 24.44C36.6785 24.6267 36.6251 24.8267 36.5185 25.04C36.4118 25.2267 36.2651 25.3867 36.0785 25.52C35.9185 25.6267 35.7585 25.6667 35.5985 25.64Z" fill="white"/>
<path d="M25.08 29.2C25.0533 29.36 24.8933 29.4 24.6 29.32C24.3333 29.2667 24.0933 29.08 23.88 28.76C23.6667 28.2533 23.56 27.7867 23.56 27.36C23.56 26.9333 23.5733 26.2933 23.6 25.44C23.76 24.5067 23.9733 23.2933 24.24 21.8C24.5333 20.28 24.8667 18.5867 25.24 16.72C25.64 14.8267 26.0667 12.8533 26.52 10.8C26.84 9.73333 27.0933 8.76 27.28 7.88C27.4933 6.97333 27.6533 6.24 27.76 5.68C27.8667 5.12 27.92 4.83999 27.92 4.83999C27.92 4.76 27.84 4.8 27.68 4.96C27.5467 5.09333 27.4133 5.25333 27.28 5.44C27.1467 5.62666 27.0933 5.77333 27.12 5.88C27.12 5.88 27.0267 6.01333 26.84 6.28C26.6533 6.54666 26.4133 6.90666 26.12 7.36C25.8533 7.62666 25.5333 8.16 25.16 8.96C24.7867 9.76 24.3733 10.5067 23.92 11.2C23.4933 12 23.04 12.8667 22.56 13.8C22.08 14.7067 21.6533 15.4667 21.28 16.08C21.04 16.4267 20.8 16.8267 20.56 17.28C20.32 17.7333 20.1733 18.0267 20.12 18.16C20.0133 18.4533 19.8267 18.8133 19.56 19.24C19.2933 19.64 19 20.04 18.68 20.44C18.52 20.68 18.36 20.9333 18.2 21.2C18.04 21.44 17.9067 21.6533 17.8 21.84C17.72 22 17.68 22.08 17.68 22.08C17.68 22.16 17.5467 22.4 17.28 22.8C17.04 23.2 16.7333 23.64 16.36 24.12C16.0133 24.6 15.68 25.0133 15.36 25.36C14.4267 26.3467 13.68 26.9333 13.12 27.12C12.56 27.28 11.9333 27.04 11.24 26.4C10.8933 25.9733 10.64 25.4933 10.48 24.96C10.32 24.4 10.2533 23.72 10.28 22.92C10.3067 22.0933 10.4 21.0667 10.56 19.84C10.7467 18.9067 10.92 17.9733 11.08 17.04C11.24 16.08 11.3867 15.1867 11.52 14.36C11.68 13.5067 11.8133 12.7867 11.92 12.2C12.0533 11.6133 12.16 11.2267 12.24 11.04C12.2933 10.5067 12.28 10.2133 12.2 10.16C12.12 10.1067 11.96 10.2667 11.72 10.64C11.6133 10.8267 11.3333 11.2933 10.88 12.04C10.4267 12.76 9.89333 13.6533 9.28 14.72C8.69333 15.7867 8.10667 16.9467 7.52 18.2C6.42667 20.2267 5.52 21.9067 4.8 23.24C4.10667 24.5467 3.54667 25.5867 3.12 26.36C2.72 27.1333 2.42667 27.7067 2.24 28.08C2.05333 28.4533 1.92 28.7067 1.84 28.84C1.76 28.9733 1.69333 29.0667 1.64 29.12C1.4 29.12 1.14667 29.0133 0.88 28.8C0.64 28.6133 0.386667 28.3867 0.12 28.12C0.0399999 27.9333 0 27.7467 0 27.56C0.0266666 27.3733 0.12 27.1067 0.28 26.76C0.44 26.3867 0.68 25.8267 1 25.08C1.34667 24.3867 1.66667 23.7867 1.96 23.28C2.25333 22.7467 2.48 22.4267 2.64 22.32C2.77333 22.1067 2.89333 21.8933 3 21.68C3.10667 21.4667 3.17333 21.2133 3.2 20.92C3.33333 20.76 3.53333 20.44 3.8 19.96C4.09333 19.4533 4.38667 18.9067 4.68 18.32C4.89333 17.9733 5.16 17.52 5.48 16.96C5.82667 16.4 6.18667 15.7867 6.56 15.12C6.93333 14.4267 7.26667 13.7733 7.56 13.16C8.78667 11.0533 9.82667 9.28 10.68 7.84C11.5333 6.37333 12.1733 5.44 12.6 5.04C12.7333 4.90666 12.8667 4.72 13 4.48C13.16 4.24 13.24 4.02666 13.24 3.84C13.24 3.28 13.3467 2.77333 13.56 2.32C13.8 1.84 14.04 1.62666 14.28 1.68C14.5467 1.68 14.7867 1.70666 15 1.76C15.2133 1.81333 15.44 1.98666 15.68 2.28C15.8933 2.6 16.08 2.92 16.24 3.24C16.4 3.56 16.3867 4.2 16.2 5.16C16.2 5.53333 16.16 5.96 16.08 6.44C16 6.89333 15.92 7.32 15.84 7.72C15.7867 8.09333 15.7467 8.38666 15.72 8.6C15.3733 9.64 15.0533 10.8133 14.76 12.12C14.4667 13.4 14.2 14.7067 13.96 16.04C13.72 17.3467 13.52 18.5733 13.36 19.72C13.2 20.84 13.0933 21.7733 13.04 22.52C13.0133 23.24 13.04 23.6533 13.12 23.76C13.3067 23.8667 13.4667 23.88 13.6 23.8C13.7333 23.72 13.96 23.3733 14.28 22.76C14.4667 22.44 14.72 22.0533 15.04 21.6C15.3867 21.12 15.72 20.68 16.04 20.28C16.2533 19.9067 16.5867 19.3467 17.04 18.6C17.4933 17.8533 18.0667 16.8933 18.76 15.72C19.48 14.5467 20.3333 13.12 21.32 11.44C22.3333 9.73333 23.48 7.76 24.76 5.52C25.3733 4.58666 25.9467 3.68 26.48 2.8C27.04 1.89333 27.4933 1.30666 27.84 1.04C28.2133 0.69333 28.6 0.613329 29 0.799995C29.4 0.959996 29.7467 1.30666 30.04 1.84C30.36 2.37333 30.5333 3.04 30.56 3.84C30.5867 4.21333 30.5333 4.81333 30.4 5.64C30.2933 6.46666 30.12 7.41333 29.88 8.48C29.64 9.52 29.3333 10.6 28.96 11.72C28.88 12.1733 28.7467 12.7467 28.56 13.44C28.4 14.1067 28.2133 14.8 28 15.52C27.7867 16.24 27.5733 16.92 27.36 17.56C27.2267 18.44 27.0667 19.3067 26.88 20.16C26.72 21.0133 26.6667 21.5867 26.72 21.88C26.48 22.3067 26.32 22.92 26.24 23.72C26.16 24.52 26.12 25.3467 26.12 26.2C26.0133 27.24 25.9333 27.9733 25.88 28.4C25.8267 28.8267 25.7333 29.0267 25.6 29C25.2533 28.8933 25.08 28.96 25.08 29.2Z" fill="white"/>
</svg>
