<svg width="163" height="35" viewBox="0 0 163 35" fill="none" xmlns="http://www.w3.org/2000/svg">
<path d="M153.273 26.018C151.94 26.018 150.966 25.538 150.353 24.578C150.166 24.3113 150.073 24.0447 150.073 23.778C150.1 23.4847 150.18 23.2847 150.313 23.178C150.473 23.0713 150.66 23.1647 150.873 23.458C151.246 23.6713 151.78 23.778 152.473 23.778C152.82 23.778 153.18 23.7513 153.553 23.698C153.926 23.618 154.3 23.5113 154.673 23.378C155.073 23.1913 155.34 23.0313 155.473 22.898C155.606 22.738 155.58 22.6047 155.393 22.498H155.433C154.74 22.3113 154.033 22.018 153.313 21.618C152.62 21.1913 152.02 20.738 151.513 20.258C151.006 19.7513 150.713 19.298 150.633 18.898C150.42 18.0713 150.473 17.2313 150.793 16.378C151.113 15.498 151.566 14.7247 152.153 14.058C152.366 13.9247 152.633 13.7647 152.953 13.578C153.273 13.3647 153.526 13.2447 153.713 13.218V13.258C154.22 12.7247 154.833 12.298 155.553 11.978C156.3 11.658 157.086 11.3647 157.913 11.098L158.513 11.018C158.833 10.9647 159.1 10.938 159.313 10.938C159.286 10.938 159.34 10.9647 159.473 11.018C159.606 11.0447 159.726 11.0713 159.833 11.098C159.993 11.178 160.126 11.218 160.233 11.218C160.58 11.2713 160.9 11.4313 161.193 11.698C161.486 11.9647 161.713 12.2847 161.873 12.658C162.06 13.0047 162.126 13.338 162.073 13.658C162.02 14.1647 161.86 14.618 161.593 15.018C161.353 15.418 161.06 15.6447 160.713 15.698C160.766 15.6713 160.726 15.6313 160.593 15.578C160.486 15.498 160.366 15.418 160.233 15.338L160.113 15.418C160.113 15.418 160.1 15.3913 160.073 15.338C160.073 15.258 160.046 15.1647 159.993 15.058C159.913 14.898 159.873 14.7247 159.873 14.538C159.873 14.3247 159.886 14.098 159.913 13.858C159.966 13.5647 159.966 13.3913 159.913 13.338C159.886 13.2847 159.713 13.2447 159.393 13.218C159.02 13.138 158.473 13.2047 157.753 13.418C157.06 13.6313 156.473 13.9247 155.993 14.298C155.406 14.6713 154.913 15.0313 154.513 15.378C154.113 15.698 153.793 16.018 153.553 16.338C153.313 16.6313 153.1 16.978 152.913 17.378C152.78 17.5647 152.66 17.7513 152.553 17.938C152.473 18.098 152.433 18.2447 152.433 18.378C152.433 18.6713 152.646 18.978 153.073 19.298C153.526 19.5913 154.193 19.938 155.073 20.338C155.766 20.6313 156.353 20.9513 156.833 21.298C157.313 21.6447 157.646 22.0447 157.833 22.498C157.886 22.6047 157.9 22.738 157.873 22.898C157.873 23.0313 157.846 23.1247 157.793 23.178C157.846 23.2313 157.873 23.2713 157.873 23.298V23.258C158.086 23.578 158.086 23.9113 157.873 24.258C157.686 24.6047 157.353 24.9113 156.873 25.178C156.42 25.418 155.86 25.6047 155.193 25.738H155.233C154.886 25.8447 154.54 25.9247 154.193 25.978C153.873 26.0047 153.566 26.018 153.273 26.018Z" fill="white"/>
<path d="M141.351 26.498C140.978 26.3913 140.671 26.2713 140.431 26.138C140.191 25.978 139.871 25.7247 139.471 25.378C139.151 24.9513 138.898 24.5513 138.711 24.178C138.551 23.8047 138.444 23.378 138.391 22.898C138.338 22.3913 138.311 21.7513 138.311 20.978C138.311 20.658 138.364 20.178 138.471 19.538C138.604 18.898 138.751 18.2313 138.911 17.538C139.098 16.818 139.258 16.178 139.391 15.618C139.551 15.058 139.644 14.698 139.671 14.538C139.751 14.1913 139.618 13.9913 139.271 13.938C138.924 13.8847 138.538 13.8713 138.111 13.898C137.711 13.898 137.444 13.858 137.311 13.778C137.204 13.7513 137.151 13.7113 137.151 13.658C137.151 13.578 137.151 13.538 137.151 13.538C137.151 13.4313 137.138 13.3647 137.111 13.338C137.111 13.2847 137.071 13.1913 136.991 13.058C136.938 12.9513 136.964 12.8047 137.071 12.618C137.204 12.4047 137.418 12.2713 137.711 12.218C137.951 12.1647 138.271 12.1247 138.671 12.098C139.098 12.0447 139.524 11.9513 139.951 11.818C140.378 11.658 140.724 11.418 140.991 11.098C141.231 10.5113 141.511 9.85799 141.831 9.13799C142.151 8.41799 142.458 7.77799 142.751 7.21799C143.071 6.63132 143.284 6.27132 143.391 6.13799C143.844 5.89799 144.178 5.80466 144.391 5.85799C144.604 5.88466 144.844 6.11132 145.111 6.53799C145.244 6.72466 145.338 6.87132 145.391 6.97799C145.471 7.08466 145.484 7.24466 145.431 7.45799C145.378 7.67132 145.231 8.00466 144.991 8.45799C144.778 8.91132 144.444 9.56466 143.991 10.418C143.858 10.6847 143.738 10.9247 143.631 11.138C143.524 11.3247 143.471 11.418 143.471 11.418C143.578 11.4447 143.738 11.458 143.951 11.458C144.164 11.458 144.431 11.4447 144.751 11.418C145.044 11.3647 145.418 11.3247 145.871 11.298C146.324 11.2447 146.684 11.2447 146.951 11.298C147.564 11.298 148.018 11.418 148.311 11.658C148.604 11.8713 148.764 12.2447 148.791 12.778C148.844 13.0713 148.778 13.2447 148.591 13.298C148.431 13.3513 147.991 13.378 147.271 13.378C147.031 13.378 146.658 13.3913 146.151 13.418C145.644 13.4447 145.111 13.4713 144.551 13.498C144.018 13.5247 143.551 13.5647 143.151 13.618C142.778 13.6447 142.591 13.6847 142.591 13.738C142.511 13.7913 142.378 14.0447 142.191 14.498C142.031 14.9513 141.858 15.4713 141.671 16.058C141.511 16.618 141.364 17.1247 141.231 17.578C141.044 18.4847 140.898 19.3913 140.791 20.298C140.711 21.2047 140.698 21.9913 140.751 22.658C140.804 23.3247 140.951 23.7913 141.191 24.058C141.431 24.298 141.898 24.3513 142.591 24.218C143.284 24.058 143.844 23.8047 144.271 23.458C144.751 23.058 145.138 22.858 145.431 22.858C145.751 22.858 145.924 23.0047 145.951 23.298C146.004 23.5647 145.858 23.9513 145.511 24.458C145.191 24.938 144.791 25.3647 144.311 25.738C143.831 26.0847 143.324 26.338 142.791 26.498C142.284 26.6313 141.804 26.6313 141.351 26.498Z" fill="white"/>
<path d="M126.492 26.138C125.719 26.2713 125.012 26.2313 124.372 26.018C123.732 25.778 123.212 25.3913 122.812 24.858C122.439 24.298 122.252 23.5913 122.252 22.738C122.172 21.938 122.266 21.018 122.532 19.978C122.799 18.9113 123.186 17.8447 123.692 16.778C124.226 15.7113 124.799 14.7913 125.412 14.018C125.946 13.378 126.479 12.7913 127.012 12.258C127.546 11.7247 128.026 11.3647 128.452 11.178C128.826 11.018 129.172 10.9247 129.492 10.898C129.839 10.8447 130.119 10.818 130.332 10.818C130.759 10.9247 131.212 11.1247 131.692 11.418C132.199 11.6847 132.452 11.978 132.452 12.298C132.452 12.298 132.479 12.338 132.532 12.418C132.612 12.4713 132.652 12.498 132.652 12.498C132.812 12.498 132.946 12.6713 133.052 13.018C133.186 13.3647 133.266 13.7647 133.292 14.218C133.319 14.6447 133.252 15.0047 133.092 15.298C132.986 15.8047 132.799 16.2447 132.532 16.618C132.266 16.9913 132.026 17.178 131.812 17.178C131.706 17.178 131.599 17.1913 131.492 17.218C131.412 17.218 131.372 17.2847 131.372 17.418C131.372 17.5513 131.292 17.6047 131.132 17.578C130.999 17.5513 130.852 17.4713 130.692 17.338C130.532 17.178 130.412 16.9913 130.332 16.778C130.332 16.6447 130.386 16.418 130.492 16.098C130.599 15.778 130.706 15.3647 130.812 14.858C130.972 14.1113 130.959 13.6313 130.772 13.418C130.586 13.178 130.226 13.1647 129.692 13.378C129.026 13.7513 128.386 14.2713 127.772 14.938C127.186 15.6047 126.639 16.4713 126.132 17.538C125.626 18.578 125.172 19.8847 124.772 21.458C124.612 22.0713 124.546 22.6047 124.572 23.058C124.626 23.5113 124.692 23.7513 124.772 23.778C125.146 23.8847 125.652 23.9113 126.292 23.858C126.932 23.778 127.399 23.658 127.692 23.498C128.119 23.2847 128.599 23.0047 129.132 22.658C129.666 22.2847 130.132 21.9513 130.532 21.658C130.666 21.578 130.826 21.4447 131.012 21.258C131.199 21.0713 131.399 20.9247 131.612 20.818C131.826 20.498 132.012 20.3113 132.172 20.258C132.332 20.2047 132.572 20.178 132.892 20.178C133.106 20.2313 133.306 20.3113 133.492 20.418C133.679 20.5247 133.799 20.6313 133.852 20.738C133.932 20.8447 133.892 20.938 133.732 21.018C133.626 21.018 133.559 21.058 133.532 21.138C133.532 21.1913 133.532 21.218 133.532 21.218C133.586 21.3247 133.466 21.5513 133.172 21.898C132.906 22.218 132.559 22.578 132.132 22.978C131.706 23.378 131.292 23.7247 130.892 24.018C130.519 24.2847 130.252 24.418 130.092 24.418C129.826 24.418 129.692 24.498 129.692 24.658C129.692 24.7113 129.492 24.8447 129.092 25.058C128.719 25.2713 128.279 25.4847 127.772 25.698C127.292 25.9113 126.866 26.058 126.492 26.138Z" fill="white"/>
<path d="M112.964 26.698C111.791 26.698 110.831 26.258 110.084 25.378C109.338 24.4713 108.978 23.3513 109.004 22.018C109.058 21.058 109.244 20.0313 109.564 18.938C109.911 17.818 110.364 16.7513 110.924 15.738C111.484 14.698 112.098 13.7913 112.764 13.018C113.431 12.2447 114.124 11.698 114.844 11.378C115.111 11.2447 115.391 11.138 115.684 11.058C116.004 10.978 116.324 10.938 116.644 10.938C116.938 10.938 117.244 10.9913 117.564 11.098C117.884 11.178 118.151 11.2713 118.364 11.378C118.818 11.5647 119.164 11.7913 119.404 12.058C119.644 12.3247 119.858 12.738 120.044 13.298C120.124 13.8047 120.164 14.1647 120.164 14.378C120.164 14.5913 120.098 14.9113 119.964 15.338C119.644 16.298 119.231 17.1247 118.724 17.818C118.218 18.5113 117.538 19.098 116.684 19.578C116.471 19.7113 116.218 19.818 115.924 19.898C115.658 19.9513 115.378 19.978 115.084 19.978C114.551 19.978 114.031 19.8847 113.524 19.698C113.044 19.4847 112.658 19.178 112.364 18.778L112.084 18.458L111.964 18.778C111.698 19.498 111.484 20.1647 111.324 20.778C111.191 21.3913 111.124 21.9513 111.124 22.458C111.124 22.778 111.151 23.0847 111.204 23.378C111.284 23.6713 111.391 23.9247 111.524 24.138C111.631 24.298 111.804 24.418 112.044 24.498C112.311 24.5513 112.591 24.578 112.884 24.578C113.071 24.578 113.258 24.578 113.444 24.578C113.658 24.5513 113.858 24.498 114.044 24.418C114.498 24.258 114.858 24.0847 115.124 23.898C115.418 23.7113 115.711 23.5113 116.004 23.298L116.164 23.218H116.124C116.444 23.058 116.724 22.898 116.964 22.738C117.231 22.578 117.364 22.498 117.364 22.498C117.471 22.498 117.578 22.4313 117.684 22.298C117.898 22.1913 118.164 22.2313 118.484 22.418C118.831 22.6047 119.004 22.8447 119.004 23.138C118.978 23.2713 118.858 23.4847 118.644 23.778C118.431 24.0447 118.191 24.298 117.924 24.538C117.684 24.778 117.484 24.9113 117.324 24.938C117.298 24.9647 117.204 25.018 117.044 25.098C116.884 25.1513 116.778 25.2047 116.724 25.258H116.764C116.524 25.578 116.284 25.738 116.044 25.738H115.724C115.618 25.9247 115.271 26.138 114.684 26.378C114.098 26.5913 113.524 26.698 112.964 26.698ZM114.764 17.898C115.244 17.898 115.658 17.7647 116.004 17.498C116.378 17.2047 116.698 16.8847 116.964 16.538C117.498 15.818 117.804 15.1247 117.884 14.458C117.991 13.7647 117.911 13.2847 117.644 13.018C117.484 12.938 117.338 12.898 117.204 12.898C117.098 12.8713 116.871 12.9113 116.524 13.018C116.284 13.0713 115.951 13.2713 115.524 13.618C115.098 13.9647 114.671 14.3513 114.244 14.778C113.844 15.2047 113.538 15.5647 113.324 15.858L112.804 16.698C113.018 16.618 113.218 16.578 113.404 16.578C113.618 16.5513 113.738 16.5647 113.764 16.618C113.764 16.858 113.804 17.0847 113.884 17.298C113.991 17.4847 114.111 17.6313 114.244 17.738C114.404 17.8447 114.578 17.898 114.764 17.898Z" fill="white"/>
<path d="M98.2803 34.018C97.8803 34.3647 97.4003 34.578 96.8403 34.658C96.2537 34.7647 95.6937 34.7247 95.1603 34.538C94.6003 34.3513 94.1203 34.018 93.7203 33.538C93.5603 33.1647 93.5337 32.858 93.6403 32.618C93.747 32.4047 93.9337 32.258 94.2003 32.178C94.467 32.1247 94.7603 32.178 95.0803 32.338C95.347 32.4447 95.787 32.458 96.4003 32.378C96.987 32.3247 97.4537 32.0713 97.8003 31.618C98.0137 31.378 98.267 30.9647 98.5603 30.378C98.8803 29.7913 99.2003 29.138 99.5203 28.418C99.8403 27.7247 100.147 27.058 100.44 26.418C100.734 25.778 100.96 25.2713 101.12 24.898C101.254 24.5513 101.374 24.218 101.48 23.898C101.587 23.578 101.64 23.3647 101.64 23.258C101.747 23.1247 101.854 22.898 101.96 22.578C102.067 22.258 102.174 21.8847 102.28 21.458C102.36 21.4047 102.427 21.3513 102.48 21.298C102.534 21.218 102.507 21.1247 102.4 21.018L103.24 17.978C103.4 17.258 103.574 16.6447 103.76 16.138C103.947 15.6313 104.04 15.3247 104.04 15.218C104.067 15.1113 104.094 14.898 104.12 14.578C104.174 14.258 104.28 13.9647 104.44 13.698C104.467 13.298 104.52 12.9513 104.6 12.658C104.707 12.338 104.76 12.1247 104.76 12.018C104.867 11.938 105.054 11.9513 105.32 12.058C105.587 12.138 105.814 12.2847 106 12.498C106.187 12.738 106.307 12.938 106.36 13.098C106.44 13.258 106.44 13.5647 106.36 14.018C106.307 14.4447 106.174 15.218 105.96 16.338C105.934 16.498 105.854 16.818 105.72 17.298C105.614 17.778 105.467 18.3247 105.28 18.938C105.12 19.5247 104.96 20.1113 104.8 20.698C104.64 21.258 104.494 21.7113 104.36 22.058C104.254 22.458 104.147 22.8313 104.04 23.178C103.934 23.5247 103.867 23.7913 103.84 23.978C103.734 24.1647 103.587 24.4847 103.4 24.938C103.24 25.3647 103.08 25.778 102.92 26.178C102.76 26.5513 102.64 26.8047 102.56 26.938C102.534 27.0447 102.48 27.138 102.4 27.218C102.347 27.3247 102.32 27.4313 102.32 27.538C102.294 27.618 102.174 27.938 101.96 28.498C101.747 29.0847 101.414 29.778 100.96 30.578C100.827 30.898 100.587 31.298 100.24 31.778C99.8937 32.258 99.5337 32.698 99.1603 33.098C98.8137 33.5247 98.5203 33.8313 98.2803 34.018ZM107.44 7.69801C107.147 7.72467 106.84 7.69801 106.52 7.61801C106.2 7.53801 105.947 7.43134 105.76 7.29801C105.307 6.92467 105.12 6.51134 105.2 6.05801C105.28 5.60467 105.52 5.19134 105.92 4.81801C106.347 4.44467 106.814 4.21801 107.32 4.138C107.534 4.11134 107.747 4.15134 107.96 4.25801C108.174 4.36467 108.36 4.52467 108.52 4.73801C108.707 4.92467 108.814 5.19134 108.84 5.53801C108.894 6.04467 108.8 6.45801 108.56 6.77801C108.347 7.09801 107.974 7.40467 107.44 7.69801Z" fill="white"/>
<path d="M89.6188 25.978C89.2721 25.978 88.9921 25.9114 88.7788 25.778C88.5921 25.6447 88.3521 25.458 88.0588 25.218C87.5521 24.6847 87.1921 24.178 86.9788 23.698C86.7654 23.1913 86.6988 22.7113 86.7788 22.258C86.8588 22.0447 86.8854 21.8447 86.8588 21.658C86.8588 21.4447 86.8588 21.338 86.8588 21.338C86.7254 21.2047 86.6854 21.1247 86.7388 21.098C86.7921 21.0447 86.8454 20.9647 86.8988 20.858C87.0588 20.858 87.1121 20.7113 87.0588 20.418C87.0054 20.2047 87.1121 19.738 87.3788 19.018C87.6454 18.298 87.9788 17.618 88.3788 16.978C88.5388 16.7113 88.7788 16.3647 89.0988 15.938C89.4188 15.4847 89.7654 15.0447 90.1388 14.618C90.5388 14.1647 90.8988 13.8047 91.2188 13.538C91.8854 12.978 92.4721 12.5647 92.9788 12.298C93.4854 12.0313 94.0321 11.8313 94.6188 11.698C95.2054 11.5647 95.6054 11.498 95.8188 11.498C96.0588 11.498 96.3788 11.7113 96.7788 12.138C97.3921 12.4047 97.8321 12.7247 98.0988 13.098C98.3921 13.4714 98.5788 14.018 98.6588 14.738C98.7388 15.538 98.6721 16.458 98.4588 17.498C98.2721 18.5113 97.6454 19.778 96.5788 21.298C95.9121 22.258 95.2988 22.978 94.7388 23.458C94.1788 23.9113 93.5121 24.3647 92.7388 24.818C92.1788 25.1913 91.6721 25.4713 91.2188 25.658C90.7654 25.818 90.2321 25.9247 89.6188 25.978ZM93.4588 21.738C94.0988 21.018 94.6054 20.338 94.9788 19.698C95.3788 19.058 95.7521 18.2447 96.0988 17.258C96.2054 16.9647 96.2721 16.6047 96.2988 16.178C96.3254 15.7247 96.3121 15.3114 96.2588 14.938C96.2321 14.538 96.1388 14.3113 95.9788 14.258C95.6588 14.0713 95.2721 14.018 94.8188 14.098C94.3654 14.1514 93.8721 14.4047 93.3388 14.858C92.5121 15.5513 91.7921 16.418 91.1788 17.458C90.5654 18.4713 89.9654 19.6313 89.3788 20.938C88.9788 21.898 88.8854 22.6713 89.0988 23.258C89.3388 23.818 89.8321 24.018 90.5788 23.858C91.3521 23.6714 92.3121 22.9647 93.4588 21.738Z" fill="white"/>
<path d="M74.8847 25.338C74.8047 25.3647 74.6714 25.3513 74.4847 25.298C74.298 25.2447 74.1114 25.178 73.9247 25.098C73.738 25.018 73.618 24.9513 73.5647 24.898C73.458 24.7913 73.3514 24.6313 73.2447 24.418C73.1647 24.2047 73.1647 23.898 73.2447 23.498C73.3247 23.0713 73.5914 22.5247 74.0447 21.858C74.178 21.5913 74.338 21.1913 74.5247 20.658C74.7114 20.1247 74.898 19.5647 75.0847 18.978C75.298 18.3647 75.4847 17.818 75.6447 17.338C75.8314 16.858 75.9647 16.5247 76.0447 16.338C76.098 15.8847 76.0714 15.5647 75.9647 15.378C75.8847 15.1647 75.658 15.0447 75.2847 15.018C75.018 15.018 74.8047 14.9913 74.6447 14.938C74.5114 14.8847 74.4447 14.618 74.4447 14.138C74.498 13.7647 74.5914 13.5113 74.7247 13.378C74.8847 13.218 75.098 13.0447 75.3647 12.858C75.6314 12.7247 75.898 12.6313 76.1647 12.578C76.458 12.5247 76.738 12.5113 77.0047 12.538C77.2714 12.5647 77.4847 12.658 77.6447 12.818C77.8314 12.9247 77.9514 13.1647 78.0047 13.538C78.058 13.8847 78.0847 14.2447 78.0847 14.618C78.1114 14.9913 78.138 15.2713 78.1647 15.458C78.4314 15.2447 78.7914 14.9513 79.2447 14.578C79.7247 14.178 80.138 13.8047 80.4847 13.458C80.9114 13.1647 81.418 12.8713 82.0047 12.578C82.5914 12.258 83.018 12.098 83.2847 12.098C83.578 12.098 83.8714 12.178 84.1647 12.338C84.458 12.4713 84.658 12.6447 84.7647 12.858C85.0314 13.3113 85.1514 13.7113 85.1247 14.058C85.1247 14.4047 84.978 14.7647 84.6847 15.138C84.418 15.4847 84.0847 15.7247 83.6847 15.858C83.3114 15.9913 83.0714 16.058 82.9647 16.058C82.8047 16.058 82.6047 15.938 82.3647 15.698C82.1247 15.458 81.9914 15.258 81.9647 15.098C81.9647 15.018 81.7914 15.098 81.4447 15.338C81.1247 15.5513 80.7647 15.8313 80.3647 16.178C79.9647 16.498 79.6314 16.7913 79.3647 17.058C78.9114 17.618 78.4314 18.378 77.9247 19.338C77.418 20.298 76.818 21.458 76.1247 22.818C75.8047 23.4847 75.578 24.058 75.4447 24.538C75.3114 24.9913 75.1247 25.258 74.8847 25.338Z" fill="white"/>
<path d="M56.3588 27.578C56.2254 27.578 56.0654 27.5113 55.8788 27.378C55.6921 27.2713 55.5188 27.1247 55.3588 26.938C55.2254 26.7513 55.1588 26.5513 55.1588 26.338C55.1588 26.338 55.1454 26.258 55.1188 26.098C55.1188 25.9113 55.0654 25.7247 54.9588 25.538C54.9588 25.3247 54.9588 25.0847 54.9588 24.818C54.9854 24.5247 55.0521 24.2313 55.1588 23.938C55.1588 23.6447 55.1988 23.3247 55.2788 22.978C55.3588 22.6047 55.4521 22.3247 55.5588 22.138C55.5588 21.8447 55.6254 21.4713 55.7588 21.018C55.9188 20.538 56.0521 20.098 56.1588 19.698C56.4521 18.818 56.6654 18.178 56.7988 17.778C56.9588 17.378 57.0654 17.0847 57.1188 16.898C57.1721 16.6847 57.1988 16.4713 57.1988 16.258C57.2788 16.0447 57.3988 15.658 57.5588 15.098C57.7188 14.538 57.8788 13.9647 58.0388 13.378C58.2254 12.7647 58.3454 12.3247 58.3988 12.058C58.5054 11.9513 58.5588 11.858 58.5588 11.778C58.5854 11.6713 58.5988 11.5647 58.5988 11.458C58.5988 11.458 58.6921 11.1513 58.8788 10.538C59.0654 9.92467 59.3054 9.218 59.5988 8.418C60.0788 7.00467 60.3988 5.978 60.5588 5.338C60.7454 4.698 60.8254 4.24467 60.7988 3.978C60.7988 3.71133 60.7321 3.44467 60.5988 3.178C60.4121 2.83133 60.4121 2.56467 60.5988 2.378C60.7054 2.27133 60.7988 2.15133 60.8788 2.018C60.9588 1.858 60.9988 1.778 60.9988 1.778C60.9988 1.72467 61.1721 1.63133 61.5188 1.498C61.8654 1.36467 62.2921 1.218 62.7988 1.058C63.3054 0.871333 63.8121 0.698 64.3188 0.538C64.8521 0.378001 65.2921 0.244667 65.6388 0.138C65.7188 0.138 65.8388 0.138 65.9988 0.138C66.1854 0.138 66.3854 0.138 66.5988 0.138C66.8388 0.138 67.0654 0.138 67.2788 0.138C67.9721 0.244667 68.6788 0.444667 69.3988 0.738C70.1454 1.03133 70.7721 1.44467 71.2788 1.978C71.5988 2.27133 71.8788 2.618 72.1188 3.018C72.3854 3.418 72.7188 4.07133 73.1188 4.978C73.1188 5.08467 73.1454 5.31133 73.1988 5.658C73.2788 5.978 73.3188 6.298 73.3188 6.618C73.3188 7.418 73.1188 8.258 72.7188 9.138C72.3188 10.018 71.7454 10.9113 70.9988 11.818C70.2521 12.698 69.3454 13.578 68.2788 14.458C67.1588 15.3647 65.9988 15.978 64.7988 16.298C63.5988 16.618 62.5321 16.6847 61.5988 16.498C61.4121 16.418 61.2388 16.258 61.0788 16.018C60.9454 15.778 60.8521 15.538 60.7988 15.298C60.7454 15.058 60.7588 14.898 60.8388 14.818C61.0521 14.7647 61.3721 14.7513 61.7988 14.778C62.2254 14.778 62.9054 14.6047 63.8388 14.258C64.1321 14.1513 64.4388 14.0313 64.7588 13.898C65.0788 13.738 65.3321 13.6047 65.5188 13.498C66.0521 13.1513 66.6654 12.6847 67.3588 12.098C68.0521 11.5113 68.6921 10.7513 69.2788 9.818C69.5188 9.44467 69.7588 9.00467 69.9988 8.498C70.2388 7.96467 70.4388 7.43133 70.5988 6.898C70.7854 6.36467 70.8788 5.92467 70.8788 5.578C71.0921 4.88467 70.9588 4.31133 70.4788 3.858C70.0254 3.378 69.2921 3.08467 68.2788 2.978C67.9588 2.898 67.4654 2.92467 66.7988 3.058C66.1321 3.16467 65.4921 3.31133 64.8788 3.498C64.2654 3.68467 63.8521 3.84467 63.6388 3.978C63.5321 3.978 63.4654 4.058 63.4388 4.218C63.4121 4.378 63.3454 4.56467 63.2388 4.778C63.2388 4.96467 63.1588 5.36467 62.9988 5.978C62.8388 6.56467 62.6521 7.11133 62.4388 7.618C62.2521 8.20467 62.0254 8.858 61.7588 9.578C61.4921 10.2713 61.3054 10.818 61.1988 11.218C61.0921 11.6447 60.9588 12.058 60.7988 12.458C60.6654 12.858 60.5988 13.058 60.5988 13.058C60.5988 13.1647 60.5188 13.3913 60.3588 13.738C60.2254 14.0847 60.1054 14.458 59.9988 14.858C59.8921 15.3647 59.7454 15.938 59.5588 16.578C59.3988 17.218 59.2121 17.7913 58.9988 18.298C58.7054 19.2847 58.4521 20.2713 58.2388 21.258C58.0254 22.218 58.0121 22.8447 58.1988 23.138C58.4921 23.138 58.5988 23.378 58.5188 23.858C58.4388 24.3113 58.1988 24.938 57.7988 25.738C57.5321 26.4047 57.3321 26.858 57.1988 27.098C57.0654 27.3647 56.9454 27.5113 56.8388 27.538C56.7321 27.5647 56.5721 27.578 56.3588 27.578Z" fill="white"/>
<path d="M30.1985 34.538C29.5585 34.7247 28.8518 34.7513 28.0785 34.618C27.3318 34.5113 26.6785 34.2847 26.1185 33.938C25.5318 33.5913 25.1985 33.2047 25.1185 32.778C25.0918 32.618 25.1451 32.4447 25.2785 32.258C25.3851 32.0713 25.5318 31.938 25.7185 31.858C25.8785 31.8047 26.0251 31.858 26.1585 32.018C26.3718 32.1513 26.7585 32.3113 27.3185 32.498C27.8785 32.7113 28.5051 32.7513 29.1985 32.618C29.8118 32.4847 30.4118 32.1247 30.9985 31.538C31.6118 30.9513 32.1051 30.4047 32.4785 29.898C32.6918 29.578 33.0518 29.0047 33.5585 28.178C34.0651 27.3513 34.5851 26.4447 35.1185 25.458C35.6785 24.4447 36.1451 23.5113 36.5185 22.658C36.5985 22.4447 36.6918 22.1913 36.7985 21.898C36.9051 21.6047 37.0385 21.3647 37.1985 21.178C37.3585 20.858 37.4918 20.5647 37.5985 20.298C37.7318 20.0047 37.8118 19.8047 37.8385 19.698C37.8651 19.5647 37.9851 19.298 38.1985 18.898C38.4118 18.498 38.6118 18.098 38.7985 17.698C38.9318 17.298 39.1318 16.7113 39.3985 15.938C39.6651 15.1647 39.9318 14.538 40.1985 14.058C40.5185 13.4447 40.7718 12.9513 40.9585 12.578C41.1718 12.178 41.3985 11.938 41.6385 11.858C41.8785 11.6713 42.0385 11.578 42.1185 11.578C42.2251 11.578 42.4251 11.658 42.7185 11.818C43.0385 12.138 43.2385 12.458 43.3185 12.778C43.3985 13.0713 43.3585 13.4447 43.1985 13.898C43.0651 14.3247 42.7985 14.9113 42.3985 15.658C42.1851 16.298 41.9451 16.8847 41.6785 17.418C41.4385 17.9247 41.2518 18.258 41.1185 18.418C40.9851 18.738 40.8251 19.098 40.6385 19.498C40.4785 19.8713 40.3318 20.218 40.1985 20.538C39.7185 21.6047 39.3051 22.4713 38.9585 23.138C38.6118 23.8047 38.3051 24.418 38.0385 24.978C37.7718 25.538 37.4918 26.1913 37.1985 26.938C36.5851 27.9247 35.9851 28.858 35.3985 29.738C34.8385 30.6447 34.2385 31.4847 33.5985 32.258C33.3318 32.498 32.9985 32.778 32.5985 33.098C32.1985 33.418 31.7851 33.7113 31.3585 33.978C30.9585 34.2447 30.5718 34.4313 30.1985 34.538ZM35.5985 24.938C35.1985 24.8847 34.7985 24.6447 34.3985 24.218C34.0251 23.7913 33.7318 23.338 33.5185 22.858C33.3051 22.378 33.2251 22.0313 33.2785 21.818C33.2785 21.6847 33.2785 21.578 33.2785 21.498C33.2785 21.418 33.2785 21.378 33.2785 21.378C33.1185 21.378 32.9718 21.178 32.8385 20.778C32.7318 20.378 32.6518 19.858 32.5985 19.218C32.5451 18.578 32.5051 17.898 32.4785 17.178C32.4785 16.458 32.5051 15.778 32.5585 15.138C32.6651 14.6847 32.7185 14.1913 32.7185 13.658C32.7185 13.098 32.7318 12.658 32.7585 12.338C32.7318 11.9113 32.7718 11.6313 32.8785 11.498C32.9851 11.338 33.0918 11.218 33.1985 11.138C33.9451 10.818 34.4385 11.018 34.6785 11.738C34.9451 12.4313 35.0118 13.738 34.8785 15.658C34.8251 16.7247 34.8251 17.7913 34.8785 18.858C34.9318 19.9247 35.0785 20.858 35.3185 21.658C35.5851 22.458 35.9451 23.0047 36.3985 23.298C36.5851 23.4047 36.6785 23.5513 36.6785 23.738C36.6785 23.9247 36.6251 24.1247 36.5185 24.338C36.4118 24.5247 36.2651 24.6847 36.0785 24.818C35.9185 24.9247 35.7585 24.9647 35.5985 24.938Z" fill="white"/>
<path d="M25.08 28.498C25.0533 28.658 24.8933 28.698 24.6 28.618C24.3333 28.5647 24.0933 28.378 23.88 28.058C23.6667 27.5513 23.56 27.0847 23.56 26.658C23.56 26.2313 23.5733 25.5913 23.6 24.738C23.76 23.8047 23.9733 22.5913 24.24 21.098C24.5333 19.578 24.8667 17.8847 25.24 16.018C25.64 14.1247 26.0667 12.1513 26.52 10.098C26.84 9.03133 27.0933 8.058 27.28 7.178C27.4933 6.27133 27.6533 5.538 27.76 4.978C27.8667 4.418 27.92 4.138 27.92 4.138C27.92 4.058 27.84 4.098 27.68 4.258C27.5467 4.39133 27.4133 4.55133 27.28 4.738C27.1467 4.92467 27.0933 5.07133 27.12 5.178C27.12 5.178 27.0267 5.31133 26.84 5.578C26.6533 5.84467 26.4133 6.20467 26.12 6.658C25.8533 6.92467 25.5333 7.458 25.16 8.258C24.7867 9.058 24.3733 9.80467 23.92 10.498C23.4933 11.298 23.04 12.1647 22.56 13.098C22.08 14.0047 21.6533 14.7647 21.28 15.378C21.04 15.7247 20.8 16.1247 20.56 16.578C20.32 17.0313 20.1733 17.3247 20.12 17.458C20.0133 17.7513 19.8267 18.1113 19.56 18.538C19.2933 18.938 19 19.338 18.68 19.738C18.52 19.978 18.36 20.2313 18.2 20.498C18.04 20.738 17.9067 20.9513 17.8 21.138C17.72 21.298 17.68 21.378 17.68 21.378C17.68 21.458 17.5467 21.698 17.28 22.098C17.04 22.498 16.7333 22.938 16.36 23.418C16.0133 23.898 15.68 24.3113 15.36 24.658C14.4267 25.6447 13.68 26.2313 13.12 26.418C12.56 26.578 11.9333 26.338 11.24 25.698C10.8933 25.2713 10.64 24.7913 10.48 24.258C10.32 23.698 10.2533 23.018 10.28 22.218C10.3067 21.3913 10.4 20.3647 10.56 19.138C10.7467 18.2047 10.92 17.2713 11.08 16.338C11.24 15.378 11.3867 14.4847 11.52 13.658C11.68 12.8047 11.8133 12.0847 11.92 11.498C12.0533 10.9113 12.16 10.5247 12.24 10.338C12.2933 9.80467 12.28 9.51133 12.2 9.458C12.12 9.40467 11.96 9.56467 11.72 9.938C11.6133 10.1247 11.3333 10.5913 10.88 11.338C10.4267 12.058 9.89333 12.9513 9.28 14.018C8.69333 15.0847 8.10667 16.2447 7.52 17.498C6.42667 19.5247 5.52 21.2047 4.8 22.538C4.10667 23.8447 3.54667 24.8847 3.12 25.658C2.72 26.4313 2.42667 27.0047 2.24 27.378C2.05333 27.7513 1.92 28.0047 1.84 28.138C1.76 28.2713 1.69333 28.3647 1.64 28.418C1.4 28.418 1.14667 28.3113 0.88 28.098C0.64 27.9113 0.386667 27.6847 0.12 27.418C0.0399999 27.2313 0 27.0447 0 26.858C0.0266666 26.6713 0.12 26.4047 0.28 26.058C0.44 25.6847 0.68 25.1247 1 24.378C1.34667 23.6847 1.66667 23.0847 1.96 22.578C2.25333 22.0447 2.48 21.7247 2.64 21.618C2.77333 21.4047 2.89333 21.1913 3 20.978C3.10667 20.7647 3.17333 20.5113 3.2 20.218C3.33333 20.058 3.53333 19.738 3.8 19.258C4.09333 18.7513 4.38667 18.2047 4.68 17.618C4.89333 17.2713 5.16 16.818 5.48 16.258C5.82667 15.698 6.18667 15.0847 6.56 14.418C6.93333 13.7247 7.26667 13.0713 7.56 12.458C8.78667 10.3513 9.82667 8.578 10.68 7.138C11.5333 5.67133 12.1733 4.738 12.6 4.338C12.7333 4.20467 12.8667 4.018 13 3.778C13.16 3.538 13.24 3.32467 13.24 3.138C13.24 2.578 13.3467 2.07133 13.56 1.618C13.8 1.138 14.04 0.924667 14.28 0.978C14.5467 0.978 14.7867 1.00467 15 1.058C15.2133 1.11133 15.44 1.28467 15.68 1.578C15.8933 1.898 16.08 2.218 16.24 2.538C16.4 2.858 16.3867 3.498 16.2 4.458C16.2 4.83133 16.16 5.258 16.08 5.738C16 6.19133 15.92 6.618 15.84 7.018C15.7867 7.39133 15.7467 7.68467 15.72 7.898C15.3733 8.938 15.0533 10.1113 14.76 11.418C14.4667 12.698 14.2 14.0047 13.96 15.338C13.72 16.6447 13.52 17.8713 13.36 19.018C13.2 20.138 13.0933 21.0713 13.04 21.818C13.0133 22.538 13.04 22.9513 13.12 23.058C13.3067 23.1647 13.4667 23.178 13.6 23.098C13.7333 23.018 13.96 22.6713 14.28 22.058C14.4667 21.738 14.72 21.3513 15.04 20.898C15.3867 20.418 15.72 19.978 16.04 19.578C16.2533 19.2047 16.5867 18.6447 17.04 17.898C17.4933 17.1513 18.0667 16.1913 18.76 15.018C19.48 13.8447 20.3333 12.418 21.32 10.738C22.3333 9.03134 23.48 7.058 24.76 4.818C25.3733 3.88467 25.9467 2.978 26.48 2.098C27.04 1.19133 27.4933 0.604667 27.84 0.338001C28.2133 -0.00866604 28.6 -0.0886666 29 0.0979992C29.4 0.258 29.7467 0.604667 30.04 1.138C30.36 1.67133 30.5333 2.338 30.56 3.138C30.5867 3.51133 30.5333 4.11133 30.4 4.938C30.2933 5.76467 30.12 6.71133 29.88 7.778C29.64 8.818 29.3333 9.898 28.96 11.018C28.88 11.4713 28.7467 12.0447 28.56 12.738C28.4 13.4047 28.2133 14.098 28 14.818C27.7867 15.538 27.5733 16.218 27.36 16.858C27.2267 17.738 27.0667 18.6047 26.88 19.458C26.72 20.3113 26.6667 20.8847 26.72 21.178C26.48 21.6047 26.32 22.218 26.24 23.018C26.16 23.818 26.12 24.6447 26.12 25.498C26.0133 26.538 25.9333 27.2713 25.88 27.698C25.8267 28.1247 25.7333 28.3247 25.6 28.298C25.2533 28.1913 25.08 28.258 25.08 28.498Z" fill="white"/>
</svg>
